<?xml version="1.0" encoding="UTF-8"?>
<svg xmlns="http://www.w3.org/2000/svg" xmlns:xlink="http://www.w3.org/1999/xlink" viewBox="0 0 4202 1391">
<symbol id="github" viewBox="0 0 512 512">
<g stroke="none" stroke-width="1" fill="none" fill-rule="evenodd">
<path d="M173.9,403.4 C173.9,405.4 171.6,407 168.7,407 C165.4,407.3 163.1,405.7 163.1,403.4 C163.1,401.4 165.4,399.8 168.3,399.8 C171.3,399.5 173.9,401.1 173.9,403.4 Z M142.8,398.9 C142.1,400.9 144.1,403.2 147.1,403.8 C149.7,404.8 152.7,403.8 153.3,401.8 C153.9,399.8 152,397.5 149,396.6 C146.4,395.9 143.5,396.9 142.8,398.9 Z M187,397.2 C184.1,397.9 182.1,399.8 182.4,402.1 C182.7,404.1 185.3,405.4 188.3,404.7 C191.2,404 193.2,402.1 192.9,400.1 C192.6,398.2 189.9,396.9 187,397.2 Z M252.8,14 C114.1,14 8,119.3 8,258 C8,368.9 77.8,463.8 177.5,497.2 C190.3,499.5 194.8,491.6 194.8,485.1 C194.8,478.9 194.5,444.7 194.5,423.7 C194.5,423.7 124.5,438.7 109.8,393.9 C109.8,393.9 98.4,364.8 82,357.3 C82,357.3 59.1,341.6 83.6,341.9 C83.6,341.9 108.5,343.9 122.2,367.7 C144.1,406.3 180.8,395.2 195.1,388.6 C197.4,372.6 203.9,361.5 211.1,354.9 C155.2,348.7 98.8,340.6 98.8,244.4 C98.8,216.9 106.4,203.1 122.4,185.5 C119.8,179 111.3,152.2 125,117.6 C145.9,111.1 194,144.6 194,144.6 C214,139 235.5,136.1 256.8,136.1 C278.1,136.1 299.6,139 319.6,144.6 C319.6,144.6 367.7,111 388.6,117.6 C402.3,152.3 393.8,179 391.2,185.5 C407.2,203.2 417,217 417,244.4 C417,340.9 358.1,348.6 302.2,354.9 C311.4,362.8 319.2,377.8 319.2,401.3 C319.2,435 318.9,476.7 318.9,484.9 C318.9,491.4 323.5,499.3 336.2,497 C436.2,463.8 504,368.9 504,258 C504,119.3 391.5,14 252.8,14 Z M105.2,358.9 C103.9,359.9 104.2,362.2 105.9,364.1 C107.5,365.7 109.8,366.4 111.1,365.1 C112.4,364.1 112.1,361.8 110.4,359.9 C108.8,358.3 106.5,357.6 105.2,358.9 Z M94.4,350.8 C93.7,352.1 94.7,353.7 96.7,354.7 C98.3,355.7 100.3,355.4 101,354 C101.7,352.7 100.7,351.1 98.7,350.1 C96.7,349.5 95.1,349.8 94.4,350.8 Z M126.8,386.4 C125.2,387.7 125.8,390.7 128.1,392.6 C130.4,394.9 133.3,395.2 134.6,393.6 C135.9,392.3 135.3,389.3 133.3,387.4 C131.1,385.1 128.1,384.8 126.8,386.4 Z M115.4,371.7 C113.8,372.7 113.8,375.3 115.4,377.6 C117,379.9 119.7,380.9 121,379.9 C122.6,378.6 122.6,376 121,373.7 C119.6,371.4 117,370.4 115.4,371.7 Z" fill="currentColor" fill-rule="nonzero"></path>
</g>
</symbol>
<symbol id="rss" viewBox="0 0 512 512">
<g stroke="none" stroke-width="1" fill="none" fill-rule="evenodd">
<path d="M96.125,183 C224.186026,183 328,286.813974 328,414.875 C328,433.169432 313.169432,448 294.875,448 C276.580568,448 261.75,433.169432 261.75,414.875 C261.75,323.402838 187.597162,249.25 96.125,249.25 C77.8305677,249.25 63,234.419432 63,216.125 C63,197.830568 77.8305677,183 96.125,183 Z" fill="currentColor" fill-rule="nonzero"></path>
<path d="M96.1578947,28 C309.80489,28 483,201.19511 483,414.842105 C483,433.154705 468.154705,448 449.842105,448 C431.529506,448 416.684211,433.154705 416.684211,414.842105 C416.684211,237.820309 273.179691,94.3157895 96.1578947,94.3157895 C77.8452951,94.3157895 63,79.4704943 63,61.1578947 C63,42.8452951 77.8452951,28 96.1578947,28 Z" fill="currentColor" fill-rule="nonzero"></path>
<path d="M118,337 C148.375661,337 173,361.624339 173,392 C173,422.375661 148.375661,447 118,447 C87.6243388,447 63,422.375661 63,392 C63,361.624339 87.6243388,337 118,337 Z M118.5,380 C112.148725,380 107,385.148725 107,391.5 C107,397.851275 112.148725,403 118.5,403 C124.851275,403 130,397.851275 130,391.5 C130,385.148725 124.851275,380 118.5,380 Z" fill="currentColor" fill-rule="nonzero"></path>
</g>
</symbol>
<symbol id="dockerhub" viewBox="0 0 512 512">
<g stroke="none" stroke-width="1" fill="none" fill-rule="evenodd">
<path d="M279.935805,240.221156 L227.059407,240.221156 L227.059407,192.764785 L279.935805,192.764785 L279.935805,240.221156 Z M279.935805,77 L227.059407,77 L227.059407,125.494979 L279.935805,125.494979 L279.935805,77 Z M342.491545,192.684892 L289.615146,192.684892 L289.615146,240.141263 L342.491545,240.141263 L342.491545,192.684892 L342.491545,192.684892 Z M217.46006,135.082125 L164.583662,135.082125 L164.583662,183.097746 L217.46006,183.097746 L217.46006,135.082125 Z M279.935805,135.082125 L227.059407,135.082125 L227.059407,183.097746 L279.935805,183.097746 L279.935805,135.082125 Z M501.360725,214.975006 C489.841509,207.225396 463.283318,204.429145 442.884707,208.264004 C440.244887,189.089712 429.525617,172.3921 410.006947,157.372238 L398.807709,149.9422 L391.368216,161.127204 C376.649218,183.337425 372.649491,219.928364 388.408418,244.056014 C381.448892,247.81098 367.769823,252.924124 349.691055,252.604553 L1.95473811,252.604553 C-5.00478789,293.190136 6.59442211,345.919438 37.1523409,382.110913 C66.8303196,417.183888 111.30729,435 169.463329,435 C295.374754,435 388.568407,377.077661 432.165437,271.858737 C449.284271,272.178308 486.241754,271.93863 505.200463,235.747155 C506.400381,233.749833 510.480104,225.201294 512,222.085472 L501.360725,214.975006 Z M92.5085707,192.684892 L39.7121665,192.684892 L39.7121665,240.141263 L92.5885652,240.141263 L92.5885652,192.684892 L92.5085707,192.684892 Z M154.984316,192.684892 L102.107917,192.684892 L102.107917,240.141263 L154.984316,240.141263 L154.984316,192.684892 Z M217.46006,192.684892 L164.583662,192.684892 L164.583662,240.141263 L217.46006,240.141263 L217.46006,192.684892 Z M154.984316,135.082125 L102.107917,135.082125 L102.107917,183.097746 L154.984316,183.097746 L154.984316,135.082125 Z" fill="currentColor" fill-rule="nonzero"></path>
</g>
</symbol>
<symbol id="letterboxd" viewBox="0 0 512 512">
<g stroke="none" stroke-width="1" fill="none" fill-rule="evenodd">
<circle fill="#FF8000" fill-rule="nonzero" cx="117.5" cy="256.5" r="80.5"></circle>
<circle fill="#40BCF4" fill-rule="nonzero" cx="394.5" cy="256.5" r="80.5"></circle>
<circle fill="#00E054" fill-rule="nonzero" cx="256.5" cy="256.5" r="80.5"></circle>
<path d="M325.5,215 C332.79675,227.119265 337,241.320721 337,256.5 C337,271.679279 332.8025,285.880735 325.5,298 C318.1975,285.880735 314,271.679279 314,256.5 C314,241.476022 318.11125,227.412613 325.27575,215.373874 L325.5,215 Z" fill="#FFFFFF" fill-rule="nonzero"></path>
<path d="M186.5,215 C193.79675,227.119265 198,241.320721 198,256.5 C198,271.679279 193.8025,285.880735 186.5,298 C179.1975,285.880735 175,271.679279 175,256.5 C175,241.476022 179.11125,227.412613 186.27575,215.373874 L186.5,215 Z" fill="#FFFFFF" fill-rule="nonzero"></path>
</g>
</symbol>
<symbol id="instagram" viewBox="0 0 512 512">
<g stroke="none" stroke-width="1" fill="none" fill-rule="evenodd">
<path d="M256.049972,141.138458 C192.485443,141.138458 141.214055,192.421288 141.214055,256 C141.214055,319.578712 192.485443,370.861542 256.049972,370.861542 C319.614501,370.861542 370.88589,319.578712 370.88589,256 C370.88589,192.421288 319.614501,141.138458 256.049972,141.138458 Z M256.049972,330.674997 C214.972895,330.674997 181.391634,297.18621 181.391634,256 C181.391634,214.81379 214.87295,181.325003 256.049972,181.325003 C297.226994,181.325003 330.70831,214.81379 330.70831,256 C330.70831,297.18621 297.12705,330.674997 256.049972,330.674997 L256.049972,330.674997 Z M402.368321,136.440031 C402.368321,151.335044 390.375014,163.231061 375.583268,163.231061 C360.691578,163.231061 348.798215,151.235078 348.798215,136.440031 C348.798215,121.644985 360.791523,109.649001 375.583268,109.649001 C390.375014,109.649001 402.368321,121.644985 402.368321,136.440031 Z M478.425878,163.630927 C476.726827,127.742943 468.5314,95.953587 442.246068,69.7623564 C416.06068,43.5711257 384.278416,35.3738704 348.398438,33.5744728 C311.419074,31.4751757 200.580926,31.4751757 163.601562,33.5744728 C127.821528,35.2739038 96.0392638,43.4711592 69.753932,69.6623898 C43.4686001,95.8536204 35.3731177,127.642977 33.5741216,163.530961 C31.4752928,200.518576 31.4752928,311.381457 33.5741216,348.369073 C35.2731735,384.257057 43.4686001,416.046413 69.753932,442.237644 C96.0392638,468.428874 127.721584,476.62613 163.601562,478.425527 C200.580926,480.524824 311.419074,480.524824 348.398438,478.425527 C384.278416,476.726096 416.06068,468.528841 442.246068,442.237644 C468.431456,416.046413 476.626882,384.257057 478.425878,348.369073 C480.524707,311.381457 480.524707,200.618543 478.425878,163.630927 Z M430.652538,388.055785 C422.856888,407.649225 407.76531,422.74417 388.076297,430.641526 C358.59275,442.33761 288.63179,439.638514 256.049972,439.638514 C223.468154,439.638514 153.40725,442.237644 124.023648,430.641526 C104.434579,422.844137 89.3430006,407.749191 81.4474066,388.055785 C69.753932,358.565659 72.4524261,288.589088 72.4524261,256 C72.4524261,223.410912 69.8538762,153.334375 81.4474066,123.944215 C89.2430563,104.350775 104.334635,89.2558295 124.023648,81.3584737 C153.507195,69.6623898 223.468154,72.3614861 256.049972,72.3614861 C288.63179,72.3614861 358.692694,69.7623564 388.076297,81.3584737 C407.665365,89.155863 422.756944,104.250809 430.652538,123.944215 C442.346012,153.434341 439.647518,223.410912 439.647518,256 C439.647518,288.589088 442.346012,358.665625 430.652538,388.055785 Z" fill="currentColor" fill-rule="nonzero"></path>
</g>
</symbol>
<symbol id="strava" viewBox="0 0 512 512">
<g stroke="none" stroke-width="1" fill="none" fill-rule="evenodd">
<path d="M222.074793,0 L71,292 L160.029069,292 L222.04286,175.904 L283.673456,292 L372,292 L222.074793,0 Z M372.621459,292 L328.85093,380.192 L284.410443,292 L217,292 L328.85093,512 L440,292 L372.621459,292 Z" fill="currentColor" fill-rule="nonzero"></path>
</g>
</symbol>
<symbol id="scholar" viewBox="0 0 512 512">
<g stroke="none" stroke-width="1" fill="none" fill-rule="evenodd">
<g transform="translate(0, 103)" fill="currentColor" fill-rule="nonzero">
<path d="M497.869945,71.3150761 L274.717073,2.80015755 C262.557026,-0.93338585 249.436974,-0.93338585 237.284927,2.80015755 L14.1240552,71.3150761 C-4.70801839,77.0952728 -4.70801839,101.982897 14.1240552,107.763094 L53.0282071,119.707235 C44.4921738,130.252297 39.2441533,143.115833 38.7241513,157.202564 C31.0201212,161.61566 25.5961,169.578421 25.5961,179.084166 C25.5961,187.702495 30.1401177,194.953724 36.6841433,199.590673 L16.2600635,291.434242 C14.4840566,299.420987 20.5640803,307 28.7481123,307 L73.6362876,307 C81.8283196,307 87.9083434,299.420987 86.1323365,291.434242 L65.7082567,199.590673 C72.2522822,194.953724 76.7963,187.702495 76.7963,179.084166 C76.7963,169.834252 71.6202798,162.095344 64.268251,157.602301 C64.8762534,145.594202 71.0202774,134.977188 80.8203157,128.245617 L237.276927,176.286007 C244.524955,178.508545 258.429009,181.28272 274.709073,176.286007 L497.869945,107.771089 C516.710018,101.982897 516.710018,77.1032676 497.869945,71.3150761 Z M282.229102,200.741916 C259.405013,207.745308 239.956937,203.875854 229.756897,200.741916 L113.740444,165.125351 L102.3964,255.833666 C102.3964,284.095071 171.164669,307 255.997,307 C340.829331,307 409.5976,284.095071 409.5976,255.833666 L398.253556,165.117356 L282.229102,200.741916 Z" ></path>
</g>
</g>
</symbol>
<symbol id="right" viewBox="0 0 512 512">
<g stroke="none" stroke-width="1" fill="none" fill-rule="evenodd">
<path d="M284.513563,10.1305448 L287.944763,13.2321443 L498.768732,224.056114 C515.30793,240.595311 516.341529,266.769707 501.869531,284.513705 L498.767932,287.944904 L287.943963,498.768873 C270.302365,516.410471 241.697569,516.410471 224.055972,498.768873 C207.515174,482.228076 206.481575,456.05448 220.954372,438.310482 L224.055172,434.878483 L357.767152,301.176902 L45.1767981,301.176902 C20.2264017,301.176102 4.66670099e-06,280.950505 4.66670099e-06,256.000109 C4.66670099e-06,232.517712 17.9168021,213.219315 40.8255987,211.030515 L45.1767981,210.823315 L357.767152,210.823315 L224.055972,77.120935 C207.515974,60.5817374 206.482375,34.4073412 220.955172,16.6633438 L224.055972,13.2313443 C239.49357,-2.20545345 263.323166,-4.13505317 280.858364,7.44334514 L284.514363,10.1313448 L284.513563,10.1305448 Z" fill="currentColor" fill-rule="nonzero"></path>
</g>
</symbol>
<symbol id="mastodon" viewBox="0 0 512 512">
<g stroke="none" stroke-width="1" fill="none" fill-rule="evenodd">
<path d="M256.855702,0 C322.369879,0.535149894 385.429586,7.62174824 422.152754,24.4734529 C422.152754,24.4734529 494.986164,57.0293242 494.986164,168.097754 L494.988264,168.313968 C494.988907,168.385566 494.989667,168.474706 494.990503,168.581035 L495,169.422412 C495,169.596069 495,169.786201 495,169.992455 L495,175.369179 C494.950982,190.071057 494.452773,224.9686 491.152029,260.540511 L490.607227,266.159887 C489.18528,280.208105 487.307351,294.20131 484.828692,306.938808 C477.802118,343.055909 421.895988,382.582521 357.687732,390.242888 C324.205899,394.234444 291.240361,397.903256 256.088163,396.292289 C198.600018,393.660676 153.237891,382.582521 153.237891,382.582521 C153.237891,388.17401 153.583007,393.497924 154.273241,398.477025 C161.747086,455.161536 210.53001,458.557255 256.739743,460.140636 C303.380183,461.735052 344.910135,448.651465 344.910135,448.651465 L346.826222,490.779347 C346.826222,490.779347 314.20304,508.282059 256.088163,511.501234 C224.042015,513.26116 184.25145,510.695751 137.90643,498.439715 C40.4073436,472.656193 21.2177846,371.160012 17.7401642,265.95993 L17.5445436,259.448615 C17.515097,258.362819 17.4871831,257.276788 17.4607334,256.190598 C16.654541,223.940921 17.1515089,193.531166 17.1515089,168.097754 C17.1515089,57.0293242 89.9876795,24.4734529 89.9876795,24.4734529 C126.713609,7.62174824 189.731902,0.535149894 255.246079,0 L256.855702,0 Z M330.869052,87 C303.590004,87 282.934094,97.4601622 269.279391,118.383239 L256,140.5894 L242.723368,118.383239 C229.065906,97.4601622 208.409996,87 181.133708,87 C157.558097,87 138.56625,95.2684564 124.064338,111.397866 C110.001209,127.527276 103,149.328687 103,176.763552 L103,311 L156.30246,311 L156.30246,180.709172 C156.30246,153.24402 167.884673,139.303562 191.051856,139.303562 C216.666841,139.303562 229.507449,155.840475 229.507449,188.539839 L229.507449,259.855619 L282.49531,259.855619 L282.49531,188.539839 C282.49531,155.840475 295.333159,139.303562 320.948144,139.303562 C344.115327,139.303562 355.69754,153.24402 355.69754,180.709172 L355.69754,311 L409,311 L409,176.763552 C409,149.328687 401.998791,127.527276 387.938422,111.397866 C373.43375,95.2684564 354.441903,87 330.869052,87 Z" fill="currentColor" fill-rule="nonzero"></path>
</g>
</symbol>
<symbol id="left" viewBox="0 0 512 512">
<g stroke="none" stroke-width="1" fill="none" fill-rule="evenodd">
<path d="M287.943637,13.2311734 C304.484461,29.7711968 305.518062,55.9448339 291.045242,73.6888591 L287.944437,77.1208639 L154.232248,210.822653 L466.823091,210.822653 C491.773526,210.823453 511.999955,231.049082 511.999955,255.999517 C511.999955,279.481951 494.083129,298.780378 471.174297,300.969181 L466.823091,301.176381 L154.232248,301.176381 L287.944437,434.878971 C304.484461,451.418194 305.518062,477.592631 291.045242,495.336656 L287.944437,498.768661 C271.404414,515.307885 245.229977,516.341486 227.485952,501.869466 L224.054747,498.767861 L13.2312481,287.943563 C-3.30797535,271.404339 -4.34157682,245.229902 10.1304437,227.485877 L13.2320481,224.054672 L224.055547,13.2311734 C241.697172,-4.41045158 270.302012,-4.41045158 287.943637,13.2311734 Z" fill="currentColor" fill-rule="nonzero"></path>
</g>
</symbol>
<symbol id="twitter" viewBox="0 0 512 512">
<g stroke="none" stroke-width="1" fill="none" fill-rule="evenodd">
<path d="M512,92.5995105 C492.871549,101.362264 472.508218,107.123176 451.626667,109.679498 C473.777355,96.0153394 490.225195,74.775754 497.92,49.8995414 C477.653333,62.2825324 455.253333,71.2495259 431.146667,75.9465225 C411.474487,54.3000093 383.584225,41.9721957 354.346667,42 C321.758586,42.3334484 291.118533,57.5874483 271.193959,83.3972144 C251.269385,109.20698 244.255764,142.728552 252.16,174.369951 C167.137138,169.724641 88.235022,128.647957 35.6266667,61.6420329 C7.50359178,110.879771 21.6783956,173.464481 68.2666667,205.754429 C51.5337761,205.144075 35.202954,200.453544 20.6933333,192.090438 L20.6933333,193.584937 C20.6933333,245.6789 56.96,289.232868 104.96,299.267361 C89.5191619,303.503704 73.3054755,304.088437 57.6,300.97536 C71.04,343.888829 109.866667,375.059806 155.733333,375.913805 C112.047766,411.380215 55.8388656,427.562519 0,420.748773 C47.7969982,452.296348 103.810708,469.076453 161.066667,469 C354.346667,469 459.733333,304.604857 459.733333,162.20046 L459.733333,148.32297 C480.213333,133.164481 497.92,114.162995 512,92.5995105 Z" fill="currentColor" fill-rule="nonzero"></path>
</g>
</symbol>
<use href="#github" x="3690" y="167" width="512" height="512"></use>
<use href="#rss" x="2978" y="879" width="512" height="512"></use>
<use href="#dockerhub" x="2978" y="167" width="512" height="512"></use>
<use href="#letterboxd" x="2266" y="879" width="512" height="512"></use>
<use href="#instagram" x="2266" y="167" width="512" height="512"></use>
<use href="#strava" x="1554" y="879" width="512" height="512"></use>
<use href="#scholar" x="1554" y="167" width="512" height="512"></use>
<use href="#right" x="842" y="879" width="512" height="512"></use>
<use href="#mastodon" x="842" y="167" width="512" height="512"></use>
<use href="#left" x="130" y="879" width="512" height="512"></use>
<use href="#twitter" x="130" y="167" width="512" height="512"></use>
</svg>