<svg xmlns="http://www.w3.org/2000/svg" x="0" y="0" width="590" height="310" viewBox="0, 0, 590, 310" shape-rendering="geometricPrecision">
<path d="M125.396,65.717 L127.347,65.732 L129.306,65.797 L131.276,65.908 L133.256,66.067 L135.247,66.272 L137.249,66.523 L139.264,66.817 L141.173,67.134 L141.957,67.275 C155.505,69.713 164.52,82.72 162.094,96.328 C159.667,109.936 146.718,118.991 133.17,116.554 L132.385,116.412 L131.201,116.221 L130.189,116.081 L129.229,115.969 L128.321,115.884 L127.465,115.824 L126.662,115.788 L125.91,115.774 L125.211,115.779 L124.564,115.802 L123.966,115.84 L123.42,115.893 L122.922,115.956 L122.471,116.028 L122.066,116.107 L121.706,116.191 L121.387,116.278 L121.108,116.366 L120.864,116.454 L120.656,116.54 L120.478,116.623 L120.327,116.704 L120.199,116.779 L120.092,116.851 L120.001,116.919 L119.923,116.985 L119.855,117.048 L119.792,117.111 L119.732,117.176 L119.673,117.244 L119.612,117.318 L119.547,117.4 L119.475,117.493 L119.395,117.599 L119.307,117.719 L119.211,117.857 L119.105,118.016 L118.989,118.196 L118.866,118.401 L118.732,118.631 L118.591,118.887 L118.443,119.173 L118.288,119.487 L118.127,119.831 L117.817,120.541 L117.434,121.54 L117.109,122.523 L116.787,123.628 L116.474,124.853 L116.176,126.192 L115.899,127.642 L115.648,129.195 L115.425,130.844 L115.231,132.586 L115.071,134.411 L114.944,136.313 L114.852,138.287 L114.793,140.325 L114.768,142.423 L114.775,144.575 L114.815,146.772 L114.885,149.013 L115.049,152.515 L115.361,157.235 L115.761,161.961 L116.236,166.73 L116.769,171.51 L117.345,176.268 L117.79,179.788 L118.09,182.118 L118.393,184.445 L118.694,186.749 L118.99,189.026 L119.279,191.277 L119.559,193.499 L119.828,195.691 L120.082,197.85 L120.319,199.98 L120.537,202.079 L120.734,204.15 L120.828,205.25 C122.008,219.023 111.846,231.148 98.134,232.333 C84.422,233.516 72.349,223.31 71.171,209.537 L71.113,208.856 L70.964,207.257 L70.787,205.542 L70.585,203.72 L70.359,201.798 L70.113,199.785 L69.849,197.686 L69.569,195.509 L69.276,193.258 L68.973,190.937 L68.663,188.552 L68.345,186.091 L67.865,182.289 L67.237,177.072 L66.639,171.685 L66.095,166.153 L65.626,160.499 L65.261,154.82 L65.068,150.543 L64.982,147.62 L64.935,144.683 L64.932,141.731 L64.976,138.768 L65.072,135.795 L65.226,132.812 L65.44,129.82 L65.722,126.819 L66.077,123.812 L66.513,120.798 L67.036,117.778 L67.654,114.752 L68.378,111.722 L69.216,108.691 L70.182,105.658 L71.286,102.631 L72.478,99.751 L73.447,97.647 L74.188,96.16 L74.974,94.68 L75.806,93.209 L76.685,91.749 L77.615,90.302 L78.594,88.872 L79.626,87.459 L80.709,86.067 L81.846,84.698 L83.036,83.357 L84.279,82.045 L85.575,80.767 L86.924,79.526 L88.323,78.325 L89.773,77.168 L91.27,76.057 L92.813,74.994 L94.399,73.985 L96.026,73.029 L97.689,72.13 L99.389,71.289 L101.119,70.507 L102.88,69.786 L104.665,69.124 L106.473,68.524 L108.303,67.983 L110.151,67.504 L112.015,67.083 L113.893,66.722 L115.783,66.417 L117.685,66.17 L119.598,65.977 L121.521,65.839 L123.454,65.752 L125.396,65.717 z M453.572,177.217 L453.238,177.329 L453.169,177.35 L453.286,177.305 L453.523,177.225 L453.572,177.217 z M444.604,127.316 L444.926,127.45 L445.728,127.805 L446.516,128.17 L447.186,128.493 L448.222,129.02 L449.697,129.837 L451.118,130.697 L452.488,131.597 L453.804,132.536 L455.066,133.511 L456.274,134.519 L457.427,135.557 L458.526,136.625 L459.567,137.716 L460.553,138.83 L461.481,139.964 L462.353,141.112 L463.165,142.274 L463.919,143.444 L464.614,144.621 L465.25,145.798 L465.829,146.976 L466.347,148.148 L466.808,149.312 L467.212,150.464 L467.559,151.601 L467.851,152.721 L468.089,153.819 L468.275,154.894 L468.41,155.944 L468.497,156.967 L468.536,157.962 L468.531,158.929 L468.483,159.866 L468.393,160.777 L468.264,161.661 L468.094,162.521 L467.885,163.359 L467.636,164.18 L467.274,165.137 L466.944,165.881 L466.757,166.273 L466.556,166.663 L466.344,167.052 L466.119,167.439 L465.878,167.826 L465.624,168.212 L465.355,168.6 L465.069,168.987 L464.766,169.375 L464.445,169.764 L464.105,170.155 L463.745,170.545 L463.364,170.938 L462.962,171.332 L462.535,171.727 L462.085,172.123 L461.61,172.52 L461.109,172.916 L460.58,173.314 L460.023,173.71 L459.437,174.106 L458.821,174.5 L458.174,174.893 L457.495,175.283 L456.783,175.67 L456.039,176.053 L455.259,176.432 L454.445,176.805 L453.472,177.221 L453.117,177.365 L452.668,177.499 L451.912,177.709 L451.004,177.947 L449.969,178.206 L448.83,178.478 L447.601,178.761 L446.757,178.948 L446.69,175.89 L446.627,172.43 L446.589,170.145 L446.554,167.887 L446.519,165.668 L446.483,163.499 L446.446,161.39 L446.405,159.349 L446.361,157.384 L446.308,155.519 L446.264,154.187 L446.23,153.308 L446.193,152.444 L446.152,151.594 L446.105,150.752 L446.052,149.912 L445.989,149.061 L445.912,148.183 L445.816,147.252 L445.712,146.395 L445.686,146.206 L445.693,146.253 L445.529,145.083 L445.21,142.245 L444.969,139.292 L444.797,136.219 L444.684,133.024 L444.619,129.747 L444.604,127.316 z M421.083,6.008 C407.32,6.008 396.162,17.215 396.162,31.039 L396.162,32.306 L396.162,34.891 L396.161,37.536 L396.158,40.233 L396.153,42.972 L396.146,45.746 L396.129,49.961 L396.092,55.621 L396.035,61.253 L395.976,65.403 L395.929,68.117 L395.874,70.797 L395.81,73.42 L395.776,74.683 L395.777,74.642 L395.698,77.407 L395.532,82.993 L395.359,88.69 L395.191,94.48 L395.036,100.324 L394.905,106.192 L394.806,112.05 L394.76,116.442 L394.745,119.367 L394.743,120.841 L394.743,120.885 L394.744,124.508 L394.78,130.067 L394.852,133.976 L394.986,137.947 L395.202,142.026 L395.526,146.213 L395.981,150.506 L396.292,152.899 C396.295,152.915 396.297,152.931 396.299,152.946 L396.324,153.135 L396.317,153.111 L396.313,153.11 L396.323,153.257 L396.34,153.523 L396.362,153.887 L396.386,154.335 L396.41,154.856 L396.435,155.443 L396.459,156.089 L396.495,157.177 L396.539,158.773 L396.578,160.51 L396.615,162.387 L396.65,164.384 L396.684,166.486 L396.719,168.675 L396.754,170.936 L396.793,173.254 L396.857,176.801 L396.962,181.599 L397.064,185.234 L397.145,187.658 L397.237,190.031 L397.344,192.369 L397.467,194.663 L397.608,196.91 L397.771,199.106 L397.96,201.252 L398.128,202.891 L398.257,204.009 L398.392,205.066 L398.541,206.125 L398.708,207.194 L398.896,208.282 L399.113,209.401 L399.368,210.567 L399.673,211.805 L400.051,213.146 L400.537,214.635 L401.189,216.334 L401.804,217.718 C402.239,218.64 402.731,219.533 403.274,220.394 L403.303,220.44 L407.56,225.53 L412.641,229.162 L416.412,230.836 L419.152,231.638 L421.218,232.042 L422.851,232.254 L424.203,232.363 L425.37,232.412 L426.411,232.426 L427.369,232.416 L428.268,232.388 L429.466,232.328 L431.059,232.213 L432.7,232.06 L434.336,231.881 L435.983,231.679 L437.651,231.454 L439.344,231.209 L441.061,230.946 L442.796,230.667 L444.547,230.371 L447.151,229.911 L450.634,229.256 L454.094,228.562 L456.654,228.02 L458.331,227.65 L459.925,227.284 L461.471,226.917 L462.969,226.547 L464.417,226.171 L465.823,225.787 L467.201,225.387 L468.582,224.955 L469.752,224.559 L470.652,224.231 L471.222,224.01 C471.299,223.98 471.377,223.949 471.454,223.918 L472.135,223.641 L473.843,222.92 L475.644,222.115 L477.418,221.277 L479.161,220.404 L480.874,219.497 L482.558,218.555 L484.211,217.58 L485.833,216.572 L487.422,215.53 L488.979,214.454 L490.502,213.347 L491.991,212.207 L493.445,211.033 L494.865,209.83 L496.247,208.594 L497.593,207.328 L498.901,206.033 L500.17,204.709 L501.4,203.356 L502.59,201.977 L503.74,200.571 L504.848,199.14 L505.914,197.684 L506.937,196.206 L507.918,194.706 L508.855,193.185 L509.749,191.644 L510.599,190.084 L511.404,188.508 L512.458,186.265 L513.747,183.181 L514.927,179.899 L515.93,176.58 L516.755,173.232 L517.406,169.865 L517.886,166.488 L518.198,163.109 L518.346,159.734 L518.334,156.369 L518.165,153.021 L517.846,149.696 L517.379,146.397 L516.769,143.128 L516.018,139.894 L515.131,136.699 L514.112,133.545 L512.964,130.435 L511.689,127.372 L510.291,124.36 L508.77,121.401 L507.132,118.498 L505.376,115.653 L503.505,112.871 L501.523,110.151 L499.428,107.501 L497.224,104.92 L494.914,102.414 L492.496,99.984 L489.974,97.635 L487.35,95.37 L484.625,93.193 L481.801,91.107 L478.878,89.118 L475.861,87.227 L472.75,85.439 L470.252,84.114 L468.521,83.251 L466.873,82.471 L465.204,81.719 L463.514,80.996 L461.803,80.303 L460.071,79.64 L458.318,79.008 L456.547,78.407 L454.756,77.838 L452.946,77.3 L451.116,76.795 L449.268,76.323 L447.403,75.884 L445.613,75.5 L445.637,74.629 L445.704,71.831 L445.762,68.996 L445.812,66.113 L445.873,61.763 L445.932,55.948 L445.97,50.163 L445.987,45.877 L445.994,43.057 L445.999,40.282 L446.002,37.558 L446.003,34.897 L446.003,32.306 L446.003,31.039 C446.003,17.215 434.846,6.008 421.083,6.008 z M266.57,61.704 L267.684,61.729 L268.521,61.77 C271.117,61.764 270.232,61.894 271.206,61.744 L271.978,61.796 L272.279,61.797 L273.147,61.819 L273.993,61.861 L274.816,61.92 L275.617,61.997 L276.399,62.09 L277.161,62.199 L277.903,62.325 L278.629,62.465 L279.338,62.621 L280.03,62.79 L280.709,62.974 L281.375,63.171 L282.028,63.384 L282.67,63.609 L283.301,63.849 L283.922,64.103 L284.534,64.371 L285.139,64.653 L285.736,64.951 L286.327,65.263 L286.911,65.589 L287.491,65.933 L288.065,66.291 L288.635,66.666 L289.2,67.057 L289.762,67.466 L290.321,67.891 L290.875,68.334 L291.426,68.794 L291.973,69.273 L292.424,69.68 L293.152,70.368 L294.232,71.474 L295.296,72.656 L296.342,73.917 L297.369,75.255 L298.374,76.667 L299.354,78.156 L300.308,79.718 L301.233,81.351 L302.126,83.052 L302.986,84.82 L303.812,86.65 L304.599,88.54 L305.349,90.487 L306.057,92.485 L306.724,94.533 L307.348,96.625 L307.928,98.759 L308.464,100.931 L308.953,103.136 L309.396,105.369 L309.791,107.628 L310.14,109.909 L310.44,112.206 L310.694,114.517 L310.898,116.836 L311.054,119.159 L311.162,121.483 L311.223,123.802 L311.236,126.114 L311.201,128.414 L311.12,130.697 L310.993,132.959 L310.82,135.196 L310.604,137.403 L310.343,139.575 L310.041,141.71 L309.697,143.802 L309.313,145.845 L308.891,147.837 L308.433,149.772 L307.941,151.646 L307.418,153.456 L306.867,155.194 L306.289,156.858 L305.689,158.443 L305.069,159.946 L304.344,161.547 L303.832,162.597 L304.002,162.256 L303.754,162.759 L303.085,164.035 L302.398,165.26 L301.696,166.434 L300.98,167.559 L300.25,168.635 L299.509,169.663 L298.757,170.643 L297.996,171.576 L297.227,172.465 L296.449,173.309 L295.667,174.108 L294.879,174.864 L294.087,175.579 L293.292,176.251 L292.494,176.884 L291.695,177.478 L290.895,178.033 L290.093,178.55 L289.293,179.031 L288.492,179.476 L287.694,179.887 L286.896,180.262 L286.099,180.606 L285.304,180.917 L284.511,181.196 L283.719,181.444 L282.929,181.662 L282.141,181.849 L281.353,182.009 L280.567,182.138 L279.781,182.239 L278.995,182.311 L278.208,182.355 L277.422,182.37 L276.633,182.357 L275.843,182.316 L275.049,182.245 L274.253,182.144 L273.452,182.014 L272.648,181.851 L271.84,181.658 L271.024,181.432 L270.205,181.171 L269.378,180.875 L268.545,180.543 L267.707,180.172 L266.86,179.763 L266.009,179.312 L265.15,178.819 L264.286,178.28 L263.415,177.696 L262.54,177.064 L261.659,176.383 L260.776,175.65 L259.889,174.864 L259,174.023 L258.109,173.125 L257.22,172.17 L256.332,171.154 L255.446,170.077 L254.566,168.937 L253.69,167.733 L252.729,166.315 L252.124,165.376 L252.032,165.23 L251.444,164.27 L250.864,163.287 L250.295,162.28 L249.737,161.252 L249.191,160.202 L248.657,159.134 L248.177,158.139 L247.457,156.569 L246.495,154.3 L245.597,151.982 L244.767,149.624 L244.007,147.236 L243.323,144.83 L242.714,142.415 L242.184,140.003 L241.736,137.604 L241.368,135.229 L241.083,132.89 L240.868,130.378 L240.787,128.932 L240.685,126.74 L240.496,122.071 L240.366,117.502 L240.322,112.969 L240.361,109.623 L240.424,107.504 L240.517,105.436 L240.645,103.423 L240.807,101.467 L241.004,99.575 L241.236,97.749 L241.536,95.816 L241.737,94.699 L241.851,94.09 L242.216,92.286 L242.615,90.472 L243.05,88.657 L243.523,86.85 L244.03,85.062 L244.575,83.3 L245.154,81.575 L245.766,79.896 L246.41,78.272 L247.082,76.712 L247.778,75.222 L248.497,73.813 L249.302,72.376 L249.944,71.324 L250.33,70.725 L250.719,70.15 L251.109,69.599 L251.498,69.073 L251.889,68.57 L252.28,68.092 L252.671,67.636 L253.059,67.204 L253.448,66.795 L253.835,66.407 L254.222,66.042 L254.608,65.696 L254.994,65.368 L255.381,65.06 L255.771,64.767 L256.164,64.49 L256.561,64.228 L256.966,63.979 L257.38,63.743 L257.805,63.518 L258.244,63.305 L258.7,63.101 L259.177,62.909 L259.675,62.728 L260.201,62.557 L260.754,62.397 L261.34,62.25 L261.961,62.117 L262.619,61.999 L263.319,61.899 L264.061,61.816 L264.85,61.755 L265.685,61.717 L266.57,61.704 z M265.573,11.654 L263.249,11.718 L260.943,11.851 L258.66,12.055 L256.398,12.328 L254.159,12.671 L251.947,13.084 L249.763,13.567 L247.609,14.118 L245.488,14.736 L243.401,15.42 L241.353,16.169 L239.343,16.981 L237.377,17.853 L235.454,18.785 L233.577,19.772 L231.746,20.811 L229.966,21.901 L228.236,23.038 L226.556,24.218 L224.928,25.44 L223.352,26.7 L221.829,27.994 L220.357,29.32 L218.937,30.675 L217.569,32.056 L216.25,33.46 L214.981,34.885 L213.76,36.329 L212.588,37.788 L211.46,39.262 L210.379,40.749 L209.34,42.245 L208.344,43.75 L206.994,45.911 L205.293,48.852 L203.669,51.914 L202.183,54.977 L200.823,58.032 L199.583,61.071 L198.453,64.086 L197.424,67.074 L196.491,70.026 L195.646,72.936 L194.882,75.798 L194.194,78.606 L193.577,81.354 L193.026,84.036 L192.754,85.453 C192.736,85.545 192.719,85.639 192.702,85.731 L192.485,86.942 L192.012,89.895 L191.595,93 L191.256,96.077 L190.989,99.122 L190.785,102.136 L190.64,105.117 L190.544,108.063 L190.485,112.323 L190.527,117.928 L190.674,123.442 L190.885,128.758 L191.005,131.377 C191.009,131.461 191.013,131.544 191.018,131.628 L191.106,133.199 L191.41,137.006 L191.862,141.02 L192.444,145.017 L193.155,148.995 L193.989,152.95 L194.946,156.877 L196.023,160.773 L197.219,164.633 L198.531,168.454 L199.961,172.23 L201.507,175.958 L202.784,178.811 L203.689,180.726 L204.583,182.535 L205.507,184.329 L206.46,186.106 L207.444,187.867 L208.459,189.61 L209.503,191.335 L210.098,192.288 C210.149,192.37 210.201,192.451 210.253,192.532 L210.868,193.487 L212.411,195.789 L214.104,198.17 L215.85,200.482 L217.648,202.723 L219.5,204.893 L221.402,206.991 L223.354,209.015 L225.356,210.963 L227.404,212.835 L229.501,214.63 L231.641,216.346 L233.825,217.982 L236.052,219.536 L238.318,221.007 L240.622,222.393 L242.963,223.695 L245.337,224.909 L247.743,226.037 L250.18,227.074 L252.642,228.022 L255.129,228.88 L257.639,229.645 L260.167,230.319 L262.712,230.9 L265.27,231.388 L267.838,231.781 L270.415,232.08 L272.997,232.287 L275.581,232.399 L278.164,232.418 L280.744,232.343 L283.317,232.176 L285.882,231.915 L288.434,231.563 L290.971,231.12 L293.492,230.588 L295.994,229.965 L298.474,229.254 L300.929,228.456 L303.357,227.572 L305.756,226.603 L308.125,225.549 L310.46,224.414 L312.761,223.196 L315.025,221.9 L317.249,220.524 L319.433,219.071 L321.575,217.542 L323.673,215.938 L325.726,214.261 L327.732,212.512 L329.69,210.692 L331.598,208.803 L333.455,206.846 L335.26,204.822 L337.012,202.734 L338.709,200.581 L340.351,198.365 L341.937,196.087 L343.465,193.75 L344.934,191.353 L346.344,188.898 L347.694,186.387 L348.425,184.955 C348.483,184.842 348.539,184.728 348.595,184.614 L349.107,183.564 L350.352,180.862 L351.597,177.932 L352.756,174.963 L353.831,171.957 L354.824,168.915 L355.738,165.839 L356.575,162.732 L357.338,159.595 L358.027,156.429 L358.644,153.238 L359.19,150.022 L359.664,146.783 L360.071,143.524 L360.407,140.246 L360.675,136.95 L360.874,133.64 L361.006,130.317 L361.069,126.981 L361.064,123.638 L360.989,120.288 L360.846,116.933 L360.633,113.575 L360.35,110.216 L359.996,106.86 L359.572,103.507 L359.075,100.16 L358.505,96.821 L357.861,93.492 L357.141,90.177 L356.345,86.876 L355.471,83.593 L354.518,80.329 L353.482,77.088 L352.365,73.871 L351.161,70.682 L349.871,67.522 L348.491,64.396 L347.019,61.305 L345.453,58.254 L343.788,55.246 L342.025,52.286 L340.157,49.376 L338.184,46.521 L336.101,43.728 L333.907,41 L331.599,38.345 L329.174,35.769 L327.184,33.801 L325.782,32.49 L324.444,31.293 L323.075,30.122 L321.676,28.976 L320.246,27.858 L318.787,26.769 L317.296,25.709 L315.777,24.68 L314.228,23.683 L312.65,22.719 L311.042,21.789 L309.408,20.894 L307.744,20.036 L306.054,19.215 L304.337,18.432 L302.594,17.689 L300.827,16.986 L299.035,16.326 L297.22,15.706 L295.382,15.129 L293.522,14.596 L291.642,14.107 L289.743,13.663 L287.826,13.264 L285.889,12.91 L283.936,12.603 L281.967,12.341 L279.984,12.127 L277.986,11.958 L275.975,11.837 L273.951,11.762 L272.793,11.739 L271.215,11.793 L270.933,11.765 L270.933,11.765 L270.097,11.724 L267.914,11.66 L265.573,11.654 z M286.535,84.911 L284.081,84.967 C276.29,86.392 271.317,89.23 267.776,96.662 L267.55,97.18 L267.035,98.374 L266.487,99.662 L265.92,101.011 L265.335,102.417 L264.733,103.875 L264.116,105.382 L263.484,106.932 L262.517,109.316 L261.195,112.592 L259.852,115.926 L258.511,119.255 L257.192,122.522 L256.23,124.891 L255.609,126.414 L255.003,127.892 L254.417,129.312 L253.855,130.664 L253.32,131.941 L252.814,133.13 L252.344,134.224 L251.913,135.207 L251.529,136.066 L251.199,136.781 L250.938,137.325 L250.768,137.659 L250.766,137.661 C245.872,147.201 248.731,158.64 258.01,164.262 C267.362,169.718 279.346,166.526 284.777,157.132 L285.218,156.349 L285.77,155.301 L286.271,154.289 L286.762,153.255 L287.257,152.174 L287.767,151.033 L288.294,149.825 L288.841,148.553 L289.408,147.217 L289.994,145.821 L290.597,144.371 L291.216,142.87 L291.849,141.327 L292.496,139.74 L293.481,137.309 L294.815,134.006 L296.157,130.676 L297.486,127.376 L298.785,124.16 L299.726,121.839 L300.33,120.357 L300.914,118.932 L301.473,117.576 L302.005,116.296 L302.506,115.104 L302.969,114.01 L303.407,112.996 L303.633,112.479 C307.981,102.533 303.48,90.93 293.578,86.563 C289.75,85.253 292.068,85.918 286.535,84.911 z M546.034,303.613 L546.651,303.822 L546.402,303.781 L546.034,303.613 z M466.112,267.143 L460.807,267.109 L452.693,267.064 L441.606,267.005 L430.228,266.948 L418.586,266.893 L406.699,266.86 L394.594,266.83 L382.299,266.802 L369.842,266.778 L357.23,266.78 L338.108,266.788 L312.343,266.832 L286.46,266.919 L260.646,267.06 L241.462,267.19 L228.802,267.29 L216.259,267.422 L203.883,267.554 L191.695,267.685 L179.692,267.864 L167.926,268.048 L156.427,268.228 L145.199,268.439 L136.966,268.621 L131.584,268.74 L126.288,268.857 L121.088,268.973 L115.979,269.087 L110.942,269.234 L106.002,269.387 L101.165,269.539 L96.437,269.686 L91.821,269.83 L87.318,269.971 L82.926,270.118 L78.628,270.301 L74.454,270.479 L70.408,270.652 L66.495,270.819 L62.707,270.993 L59.036,271.194 L55.507,271.386 L52.123,271.571 L48.858,271.792 L45.745,272.004 L42.79,272.205 L39.968,272.434 L37.299,272.665 L34.8,272.883 L32.452,273.116 L30.251,273.371 L28.237,273.607 L26.397,273.832 L24.69,274.118 L23.18,274.372 L21.875,274.592 L20.698,274.883 L19.709,275.159 L18.932,275.369 L18.836,275.414 C15.188,276.7 7.964,281.002 6.432,284.168 C4.901,287.335 6.551,290.476 10.88,291.242 L11.198,291.331 L12.333,291.579 L13.626,291.862 L15.135,292.085 L16.81,292.319 L18.638,292.575 L20.647,292.812 L22.828,293.033 L25.158,293.27 L27.646,293.506 L30.306,293.715 L33.106,293.936 L36.047,294.168 L39.155,294.366 L42.398,294.572 L45.772,294.787 L49.297,294.978 L52.957,295.164 L56.739,295.356 L60.642,295.554 L64.663,295.759 L68.825,295.931 L73.106,296.096 L77.498,296.266 L81.994,296.441 L86.593,296.621 L91.292,296.803 L96.093,296.982 L101.014,297.128 L106.029,297.277 L111.127,297.43 L116.313,297.585 L124.243,297.822 L135.112,298.112 L146.288,298.377 L157.728,298.649 L169.407,298.919 L181.332,299.149 L193.447,299.382 L205.723,299.62 L218.157,299.831 L237.029,300.131 L262.458,300.515 L288.025,300.861 L313.515,301.177 L332.464,301.398 L344.962,301.545 L357.341,301.671 L369.557,301.795 L381.586,301.92 L393.409,302.045 L405,302.15 L416.329,302.257 L427.373,302.364 L435.45,302.445 L440.733,302.497 L445.936,302.542 L451.046,302.589 L456.068,302.635 L460.99,302.681 L465.818,302.728 L470.54,302.775 L475.157,302.821 L479.663,302.869 L484.061,302.916 L488.35,302.96 L492.517,303.002 L496.566,303.044 L500.49,303.086 L504.284,303.129 L507.949,303.172 L511.483,303.216 L514.873,303.259 L518.128,303.303 L521.236,303.348 L524.197,303.392 L527.006,303.437 L529.668,303.481 L532.165,303.524 L534.501,303.567 L536.675,303.61 L538.679,303.654 L540.507,303.698 L542.158,303.742 L543.627,303.788 L544.896,303.832 L545.965,303.875 L546.812,303.916 L547.414,303.953 L547.489,303.96 L547.555,303.97 L547.709,303.979 L547.489,303.96 L547.447,303.953 C556.75,304.625 565.31,300.188 572.483,294.499 C583.095,285.816 587.109,275.209 581.448,270.807 L578,269.23 L576.421,268.94 L575.448,268.833 L574.539,268.76 L573.557,268.697 L572.447,268.639 L571.191,268.584 L569.775,268.53 L568.205,268.477 L566.467,268.424 L564.566,268.371 L562.505,268.317 L560.284,268.265 L557.904,268.211 L555.366,268.158 L552.683,268.107 L549.843,268.057 L546.858,268.007 L543.727,267.957 L540.457,267.906 L537.044,267.856 L533.503,267.806 L529.824,267.757 L526.016,267.707 L522.082,267.658 L518.028,267.609 L513.848,267.56 L509.557,267.512 L505.144,267.47 L500.618,267.428 L495.986,267.386 L491.25,267.345 L486.415,267.304 L481.478,267.263 L476.449,267.223 L471.323,267.183 L466.112,267.143 z" fill="#FFFFFF"/>
<path d="M125.442,59.709 L127.392,59.724 L127.541,59.727 L129.502,59.792 L129.644,59.798 L131.614,59.91 L131.753,59.919 L133.733,60.078 L133.866,60.09 L135.857,60.296 L135.985,60.311 L137.988,60.561 L138.111,60.577 L140.126,60.872 L140.239,60.889 L142.226,61.221 L143.012,61.362 C159.811,64.384 170.99,80.513 167.981,97.387 C164.973,114.262 148.915,125.49 132.115,122.467 L131.381,122.336 L130.317,122.162 L129.436,122.04 L128.609,121.944 L127.835,121.872 L127.126,121.823 L126.473,121.793 L125.876,121.782 L125.338,121.786 L124.86,121.803 L124.441,121.83 L124.073,121.865 L123.77,121.903 L123.676,122.093 L123.577,122.308 L123.35,122.828 L123.066,123.567 L122.819,124.316 L122.555,125.221 L122.291,126.254 L122.033,127.415 L121.789,128.691 L121.564,130.081 L121.361,131.581 L121.183,133.184 L121.035,134.874 L120.916,136.653 L120.828,138.519 L120.773,140.448 L120.749,142.402 L120.756,144.465 L120.793,146.582 L120.86,148.731 L121.021,152.173 L121.325,156.783 L121.712,161.363 L122.179,166.061 L122.706,170.786 L123.278,175.511 L123.721,179.015 L124.021,181.339 L124.323,183.664 L124.624,185.97 L124.922,188.257 L125.213,190.522 L125.496,192.765 L125.768,194.985 L126.026,197.182 L126.268,199.356 L126.491,201.511 L126.692,203.632 L126.787,204.735 C128.249,221.815 115.65,236.85 98.646,238.318 C81.642,239.786 66.673,227.131 65.211,210.044 L65.158,209.418 L65.015,207.876 L64.843,206.208 L64.645,204.423 L64.423,202.53 L64.179,200.539 L63.917,198.456 L63.639,196.287 L63.346,194.039 L63.043,191.716 L62.732,189.324 L62.412,186.847 L61.927,183.011 L61.293,177.737 L60.687,172.276 L60.134,166.651 L59.666,160.997 L59.658,160.885 L59.293,155.207 L59.287,155.092 L59.089,150.721 L59.001,147.716 L58.954,144.689 L58.951,141.64 L58.996,138.677 L58.998,138.573 L59.094,135.599 L59.099,135.485 L59.253,132.502 L59.26,132.379 L59.475,129.388 L59.486,129.254 L59.768,126.255 L59.783,126.111 L60.138,123.105 L60.159,122.949 L60.594,119.936 L60.621,119.769 L61.143,116.749 L61.177,116.569 L61.796,113.544 L61.839,113.35 L62.562,110.321 L62.615,110.114 L63.454,107.081 C63.474,107.007 63.496,106.933 63.52,106.86 L64.485,103.828 C64.51,103.749 64.537,103.67 64.566,103.592 L65.669,100.564 C65.699,100.483 65.73,100.403 65.763,100.324 L66.955,97.444 C66.985,97.372 67.016,97.3 67.049,97.229 L68.019,95.124 L68.099,94.958 L68.839,93.47 L68.911,93.332 L69.697,91.852 L69.773,91.711 L70.606,90.24 L70.689,90.097 L71.57,88.637 L71.66,88.492 L72.589,87.045 L72.686,86.899 L73.666,85.468 L73.771,85.32 L74.801,83.907 L74.914,83.758 L75.997,82.366 L76.117,82.218 L77.253,80.85 L77.38,80.701 L78.57,79.36 L78.705,79.213 L79.948,77.903 L80.089,77.758 L81.386,76.479 L81.535,76.338 L82.884,75.097 L83.039,74.959 L84.439,73.758 L84.601,73.622 L86.05,72.465 L86.219,72.336 L87.715,71.224 L87.89,71.1 L89.433,70.039 L89.61,69.92 L91.197,68.911 L91.379,68.798 L93.006,67.843 L93.193,67.738 L94.857,66.839 L95.046,66.742 L96.744,65.901 L96.936,65.81 L98.666,65.028 L98.859,64.945 L100.619,64.224 L100.81,64.149 L102.596,63.487 L102.788,63.42 L104.597,62.819 L104.788,62.76 L106.617,62.22 L106.806,62.167 L108.653,61.687 L108.84,61.642 L110.704,61.222 L110.888,61.184 L112.766,60.821 L112.946,60.79 L114.837,60.486 L115.014,60.46 L116.916,60.213 L117.088,60.193 L119.001,59.999 L119.17,59.985 L121.093,59.846 L121.255,59.836 L123.188,59.75 L123.346,59.745 L125.288,59.71 L125.442,59.709 z M125.426,71.725 L123.639,71.757 L121.869,71.836 L120.113,71.963 L118.367,72.139 L116.642,72.364 L114.928,72.639 L113.234,72.966 L111.554,73.344 L109.894,73.776 L108.258,74.258 L106.637,74.796 L105.046,75.386 L103.477,76.029 L101.939,76.724 L100.43,77.471 L98.952,78.269 L97.512,79.115 L96.104,80.011 L94.74,80.951 L93.412,81.936 L92.127,82.962 L90.889,84.026 L89.692,85.127 L88.541,86.26 L87.434,87.429 L86.376,88.621 L85.363,89.842 L84.396,91.084 L83.471,92.352 L82.593,93.633 L81.757,94.935 L80.966,96.248 L80.213,97.579 L79.501,98.918 L78.836,100.253 L77.955,102.166 L76.857,104.819 L75.841,107.606 L74.949,110.409 L74.169,113.228 L73.492,116.059 L72.913,118.894 L72.42,121.746 L72.007,124.599 L71.67,127.453 L71.401,130.32 L71.196,133.181 L71.048,136.046 L70.956,138.912 L70.912,141.725 L70.915,144.586 L70.96,147.441 L71.043,150.27 L71.234,154.492 L71.591,160.054 L72.046,165.561 L72.583,171.02 L73.174,176.35 L73.799,181.533 L74.277,185.32 L74.593,187.773 L74.903,190.156 L75.207,192.48 L75.501,194.74 L75.782,196.933 L76.049,199.053 L76.3,201.095 L76.529,203.053 L76.736,204.923 L76.919,206.697 L77.073,208.35 L77.13,209.023 C78.026,219.491 87.2,227.247 97.621,226.347 C108.043,225.447 115.766,216.232 114.869,205.768 L114.78,204.718 L114.589,202.703 L114.376,200.648 L114.143,198.555 L113.892,196.424 L113.626,194.253 L113.348,192.046 L113.06,189.804 L112.764,187.529 L112.463,185.224 L112.159,182.891 L111.856,180.545 L111.407,176.992 L110.826,172.179 L110.284,167.328 L109.801,162.47 L109.402,157.744 L109.393,157.633 L109.082,152.912 L109.075,152.796 L108.907,149.202 L108.835,146.881 L108.795,144.596 L108.787,142.351 L108.813,140.253 L108.815,140.151 L108.874,138.112 L108.878,138.003 L108.97,136.03 L108.977,135.911 L109.104,134.008 L109.114,133.882 L109.274,132.057 L109.287,131.922 L109.48,130.18 L109.498,130.034 L109.722,128.384 L109.745,128.229 L109.997,126.676 L110.026,126.51 L110.303,125.061 L110.339,124.885 L110.636,123.545 L110.681,123.359 L110.994,122.134 L111.048,121.938 L111.371,120.833 L111.433,120.632 L111.757,119.648 C111.787,119.558 111.819,119.468 111.853,119.38 L112.237,118.382 C112.269,118.298 112.303,118.213 112.339,118.131 L112.65,117.42 L112.709,117.286 L112.87,116.942 L112.928,116.821 L113.083,116.506 L113.143,116.387 L113.291,116.103 L113.355,115.984 L113.496,115.727 L113.564,115.608 L113.696,115.378 L113.764,115.265 L113.889,115.061 L113.955,114.952 L114.071,114.772 L114.14,114.667 L114.245,114.509 L114.314,114.409 L114.411,114.271 L114.471,114.185 L114.558,114.064 L114.623,113.976 L114.757,113.8 L114.884,113.637 L114.95,113.555 L115.02,113.469 L115.082,113.394 L115.163,113.299 L115.222,113.23 L115.334,113.106 L115.393,113.041 L115.546,112.88 L115.609,112.817 C115.672,112.754 115.736,112.692 115.801,112.63 L115.87,112.566 C115.939,112.502 116.011,112.44 116.083,112.379 L116.16,112.313 C116.247,112.241 116.336,112.17 116.426,112.103 L116.517,112.035 C116.601,111.972 116.687,111.911 116.774,111.852 L116.882,111.78 C116.97,111.721 117.06,111.664 117.151,111.61 L117.279,111.534 C117.366,111.482 117.455,111.432 117.545,111.385 L117.696,111.305 C117.781,111.26 117.868,111.218 117.955,111.177 L118.133,111.094 C118.217,111.054 118.301,111.016 118.387,110.981 L118.596,110.895 C118.675,110.862 118.756,110.831 118.838,110.802 L119.08,110.714 C119.158,110.686 119.236,110.66 119.313,110.635 L119.592,110.547 C119.668,110.524 119.743,110.502 119.819,110.481 L120.138,110.394 C120.209,110.374 120.282,110.356 120.355,110.339 L120.715,110.254 L120.924,110.209 L121.329,110.131 L121.529,110.095 L121.98,110.023 L122.173,109.995 L122.672,109.932 L122.858,109.912 L123.404,109.86 L123.584,109.845 L124.181,109.807 L124.353,109.799 L125.001,109.776 L125.167,109.772 L125.865,109.767 L126.024,109.768 L126.775,109.782 L126.928,109.787 L127.731,109.823 L127.878,109.831 L128.733,109.891 L128.875,109.902 L129.783,109.987 L129.916,110.001 L130.877,110.112 L131.006,110.129 L132.019,110.269 L132.155,110.291 L133.339,110.482 L133.439,110.499 L134.225,110.64 C144.521,112.493 154.362,105.611 156.207,95.269 C158.051,84.927 151.2,75.041 140.903,73.189 L140.197,73.061 L138.344,72.753 L136.446,72.476 L134.573,72.242 L132.716,72.05 L130.868,71.902 L129.04,71.798 L127.225,71.739 L125.426,71.725 z M450.879,137.855 L451.332,138.206 L452.364,139.067 L453.35,139.955 L454.287,140.865 L455.173,141.792 L456.007,142.734 L456.791,143.693 L457.525,144.661 L458.207,145.635 L458.835,146.609 L459.413,147.588 L459.937,148.559 L460.412,149.526 L460.833,150.479 L461.207,151.421 L461.529,152.342 L461.804,153.242 L462.034,154.122 L462.218,154.971 L462.36,155.794 L462.461,156.584 L462.526,157.342 L462.555,158.068 L462.551,158.758 L462.517,159.414 L462.455,160.042 L462.368,160.638 L462.256,161.206 L462.12,161.752 L461.974,162.234 L461.741,162.849 L461.515,163.357 L461.401,163.596 L461.276,163.841 L461.14,164.088 L460.995,164.337 L460.843,164.584 L460.68,164.832 L460.501,165.088 L460.312,165.345 L460.108,165.607 L459.892,165.867 L459.657,166.138 L459.407,166.409 L459.137,166.687 L458.848,166.97 L458.536,167.259 L458.203,167.552 L457.848,167.848 L457.467,168.15 L457.059,168.457 L456.624,168.767 L456.159,169.08 L455.667,169.396 L455.143,169.714 L454.586,170.034 L453.998,170.353 L453.372,170.675 L452.72,170.992 L452.586,171.053 L452.569,170.046 L452.534,167.792 L452.499,165.573 L452.463,163.401 L452.426,161.284 L452.385,159.229 L452.34,157.243 L452.287,155.351 L452.242,153.986 L452.207,153.077 L452.168,152.185 L452.126,151.302 L452.077,150.418 L452.021,149.528 L451.953,148.616 L451.871,147.662 L451.765,146.633 L451.752,146.521 L451.649,145.664 L451.613,145.399 L451.612,145.396 L451.463,144.328 L451.163,141.663 L450.936,138.876 L450.879,137.855 z M445.411,121.358 C444.453,121.464 443.461,121.4 442.538,121.676 C440.091,122.405 438.692,124.957 438.623,127.354 L438.639,129.786 L438.704,133.142 L438.82,136.432 L438.825,136.558 L438.997,139.63 L439.008,139.784 L439.249,142.736 L439.267,142.917 L439.585,145.756 L439.606,145.918 L439.77,147.089 L439.785,147.202 L439.873,147.928 L439.963,148.803 L440.03,149.583 L440.087,150.358 L440.136,151.137 L440.18,151.929 L440.219,152.737 L440.255,153.566 L440.287,154.417 L440.331,155.72 L440.382,157.552 L440.427,159.489 L440.466,161.51 L440.503,163.605 L440.538,165.766 L440.573,167.981 L440.609,170.239 L440.646,172.528 L440.71,175.999 L440.777,179.082 C440.861,182.868 444.369,185.632 448.049,184.813 L448.894,184.626 L450.163,184.335 L451.355,184.05 L452.446,183.778 L453.422,183.522 L454.263,183.289 L454.378,183.256 L454.827,183.122 L454.869,183.108 L454.881,183.105 L454.95,183.085 L455.137,183.025 L455.47,182.913 L456.641,182.395 L456.789,182.331 L456.927,182.27 L457.741,181.897 L457.861,181.84 L458.64,181.462 L458.764,181.401 L459.509,181.017 L459.63,180.953 L460.342,180.567 L460.465,180.498 L461.143,180.107 L461.267,180.035 L461.914,179.643 L462.037,179.566 L462.653,179.171 L462.775,179.091 L463.361,178.694 L463.483,178.61 L464.04,178.214 L464.162,178.124 L464.691,177.727 L464.81,177.635 L465.312,177.238 L465.433,177.139 L465.907,176.743 L466.025,176.643 L466.474,176.247 L466.591,176.142 L467.018,175.747 L467.132,175.638 L467.535,175.244 L467.648,175.131 L468.028,174.738 L468.139,174.622 L468.499,174.231 L468.606,174.111 L468.946,173.721 L469.05,173.597 L469.371,173.208 L469.474,173.08 L469.777,172.693 L469.875,172.564 L470.161,172.176 L470.254,172.045 L470.525,171.658 L470.616,171.521 L470.87,171.135 L470.958,170.998 L471.197,170.611 L471.281,170.472 L471.506,170.085 L471.586,169.943 L471.798,169.555 L471.874,169.412 L472.075,169.021 L472.145,168.877 L472.334,168.486 L472.409,168.323 L472.737,167.579 C472.783,167.477 472.825,167.374 472.865,167.27 L473.227,166.313 C473.274,166.189 473.317,166.062 473.355,165.934 L473.605,165.113 C473.635,165.016 473.661,164.918 473.686,164.819 L473.896,163.98 C473.92,163.884 473.942,163.786 473.961,163.688 L474.13,162.827 C474.149,162.731 474.166,162.635 474.18,162.538 L474.31,161.654 C474.324,161.559 474.336,161.464 474.345,161.368 L474.435,160.458 C474.444,160.363 474.451,160.269 474.456,160.175 L474.504,159.238 C474.509,159.146 474.512,159.053 474.512,158.961 L474.517,157.994 C474.518,157.903 474.516,157.812 474.513,157.721 L474.473,156.726 C474.469,156.637 474.464,156.548 474.456,156.459 L474.369,155.435 C474.362,155.348 474.353,155.26 474.341,155.173 L474.206,154.123 C474.195,154.037 474.183,153.952 474.168,153.867 L473.981,152.792 C473.968,152.708 473.952,152.625 473.934,152.542 L473.695,151.442 C473.677,151.36 473.658,151.279 473.637,151.198 L473.345,150.078 C473.324,149.998 473.302,149.919 473.277,149.84 L472.93,148.703 C472.906,148.625 472.881,148.547 472.854,148.469 L472.45,147.317 C472.423,147.242 472.396,147.166 472.366,147.091 L471.904,145.927 C471.875,145.853 471.844,145.779 471.812,145.706 L471.293,144.534 C471.261,144.461 471.227,144.39 471.193,144.319 L470.615,143.143 C470.581,143.073 470.545,143.003 470.508,142.934 L469.872,141.756 C469.835,141.688 469.797,141.62 469.757,141.553 L469.062,140.377 C469.022,140.31 468.982,140.245 468.941,140.18 L468.186,139.01 C468.145,138.946 468.102,138.881 468.058,138.819 L467.246,137.658 C467.202,137.596 467.157,137.534 467.111,137.473 L466.24,136.324 C466.194,136.264 466.147,136.204 466.1,136.146 L465.171,135.013 C465.123,134.953 465.074,134.896 465.024,134.839 L464.038,133.726 C463.988,133.669 463.938,133.614 463.885,133.559 L462.843,132.466 C462.791,132.412 462.737,132.359 462.684,132.306 L461.585,131.24 C461.531,131.187 461.476,131.136 461.421,131.085 L460.266,130.046 C460.21,129.995 460.154,129.946 460.096,129.898 L458.888,128.89 C458.83,128.842 458.771,128.794 458.711,128.748 L457.449,127.773 C457.389,127.727 457.329,127.682 457.267,127.638 L455.951,126.699 C455.889,126.655 455.827,126.613 455.764,126.571 L454.395,125.671 C454.331,125.629 454.267,125.589 454.203,125.55 L452.781,124.69 C452.716,124.651 452.651,124.613 452.584,124.575 L451.108,123.759 L450.926,123.662 L449.89,123.135 L449.775,123.078 L449.105,122.754 L448.237,122.351 L448.133,122.304 L447.332,121.95 L447.225,121.904 L446.903,121.769 L445.411,121.358 z M421.082,12.015 C431.543,12.015 440.022,20.533 440.022,31.039 L440.022,32.306 L440.022,34.896 L440.021,37.555 L440.018,40.276 L440.013,43.047 L440.006,45.862 L439.989,50.139 L439.951,55.909 L439.892,61.701 L439.831,66.028 L439.782,68.891 L439.724,71.707 L439.658,74.484 L439.634,75.338 C439.556,78.231 441.544,80.768 444.362,81.374 L446.092,81.747 L447.854,82.16 L449.586,82.603 L451.305,83.077 L453.004,83.582 L454.685,84.117 L456.354,84.682 L457.995,85.274 L459.619,85.896 L461.224,86.546 L462.815,87.226 L464.369,87.926 L465.917,88.659 L467.524,89.46 L469.866,90.704 L472.793,92.385 L475.616,94.154 L478.351,96.016 L480.99,97.965 L483.539,100.002 L485.99,102.116 L488.348,104.312 L490.602,106.579 L492.76,108.919 L494.812,111.323 L496.766,113.796 L498.613,116.327 L500.354,118.919 L501.986,121.563 L503.508,124.26 L504.921,127.01 L506.218,129.802 L507.399,132.639 L508.461,135.516 L509.404,138.433 L510.223,141.384 L510.915,144.364 L511.477,147.374 L511.906,150.408 L512.2,153.461 L512.354,156.533 L512.365,159.61 L512.229,162.698 L511.944,165.786 L511.507,168.868 L510.913,171.935 L510.161,174.985 L509.249,178.006 L508.173,180.995 L506.993,183.82 L506.037,185.853 L505.315,187.269 L504.541,188.688 L503.728,190.091 L502.874,191.475 L501.982,192.841 L501.049,194.189 L500.078,195.514 L499.065,196.822 L498.019,198.103 L496.932,199.362 L495.807,200.599 L494.648,201.808 L493.448,202.996 L492.215,204.156 L490.947,205.289 L489.643,206.396 L488.307,207.474 L486.933,208.526 L485.53,209.546 L484.092,210.538 L482.623,211.502 L481.122,212.436 L479.591,213.339 L478.025,214.214 L476.432,215.057 L474.808,215.87 L473.157,216.651 L471.466,217.407 L469.818,218.103 L469.214,218.348 C469.155,218.371 469.097,218.394 469.04,218.416 L468.559,218.603 L467.775,218.889 L466.74,219.239 L465.48,219.633 L464.162,220.015 L462.847,220.374 L461.474,220.729 L460.04,221.084 L458.548,221.438 L457.002,221.793 L455.369,222.153 L452.861,222.684 L449.465,223.364 L446.051,224.005 L443.51,224.455 L441.806,224.741 L440.113,225.015 L438.442,225.271 L436.8,225.507 L435.188,225.725 L433.607,225.919 L432.052,226.088 L430.569,226.225 L429.101,226.331 L428.028,226.385 L427.25,226.409 L426.417,226.418 L425.536,226.406 L424.57,226.365 L423.47,226.277 L422.174,226.109 L420.565,225.794 L418.467,225.18 L415.615,223.913 L411.649,221.08 L408.18,216.931 C407.543,215.851 407.867,216.436 407.221,215.168 L406.714,214.029 L406.173,212.617 L405.772,211.389 L405.454,210.261 L405.193,209.204 L404.971,208.184 L404.778,207.19 L404.609,206.218 L404.45,205.196 L404.314,204.223 L404.189,203.245 L404.069,202.199 L403.909,200.636 L403.729,198.577 L403.572,196.464 L403.436,194.285 L403.317,192.046 L403.212,189.755 L403.122,187.422 L403.041,185.032 L402.941,181.431 L402.836,176.668 L402.773,173.144 L402.735,170.837 L402.699,168.58 L402.665,166.391 L402.63,164.286 L402.595,162.28 L402.557,160.39 L402.518,158.635 L402.473,157.012 L402.437,155.892 L402.412,155.218 L402.386,154.603 L402.36,154.052 L402.334,153.568 L402.311,153.165 L402.291,152.862 L402.281,152.715 L402.267,152.716 L402.251,152.329 L402.226,152.14 C402.225,152.132 402.225,152.132 402.224,152.131 C402.222,152.112 402.222,152.112 402.216,152.074 L401.921,149.798 L401.483,145.663 L401.171,141.634 L400.961,137.684 L400.829,133.773 L400.759,129.956 L400.725,124.47 L400.724,120.882 L400.724,120.841 L400.726,119.375 L400.741,116.472 L400.787,112.113 L400.885,106.294 L401.015,100.46 L401.17,94.639 L401.338,88.866 L401.51,83.175 L401.676,77.586 L401.755,74.846 L401.789,73.583 L401.853,70.942 L401.908,68.241 L401.956,65.509 L402.015,61.338 L402.073,55.683 L402.11,50.001 L402.127,45.771 L402.134,42.988 L402.139,40.243 L402.142,37.542 L402.143,34.893 L402.143,32.306 L402.143,31.039 C402.143,20.532 410.623,12.015 421.082,12.015 z M421.083,-0 C404.017,-0 390.182,13.896 390.181,31.038 L390.181,32.306 L390.181,34.89 L390.18,37.533 L390.177,40.227 L390.172,42.962 L390.165,45.73 L390.148,49.937 L390.111,55.582 L390.054,61.191 L389.995,65.318 L389.949,68.01 L389.894,70.673 L389.831,73.275 L389.799,74.47 L389.72,77.235 L389.554,82.813 L389.381,88.508 L389.213,94.303 L389.057,100.164 L388.925,106.056 L388.826,111.949 L388.779,116.379 L388.764,119.337 L388.762,120.833 L388.762,120.885 L388.763,124.511 L388.799,130.105 L388.872,134.087 L389.008,138.151 L389.013,138.268 L389.23,142.347 L389.239,142.492 L389.563,146.678 L389.579,146.849 L390.034,151.142 L390.051,151.285 L390.351,153.592 L390.355,153.652 L390.372,153.918 L390.391,154.245 L390.413,154.654 L390.436,155.139 L390.459,155.697 L390.482,156.314 L390.517,157.375 L390.56,158.939 L390.599,160.648 L390.635,162.506 L390.67,164.491 L390.704,166.583 L390.738,168.769 L390.774,171.03 L390.812,173.353 L390.877,176.91 L390.983,181.732 L391.085,185.402 L391.168,187.859 L391.261,190.266 L391.37,192.643 L391.495,194.986 L391.639,197.289 L391.807,199.553 L392.002,201.78 L392.179,203.507 L392.316,204.701 L392.46,205.83 L392.619,206.966 L392.799,208.123 L392.815,208.225 L393.004,209.313 L393.026,209.429 L393.242,210.547 L393.27,210.685 L393.524,211.851 L393.562,212.012 L393.867,213.25 L393.918,213.442 L394.297,214.784 C394.319,214.862 394.343,214.94 394.368,215.017 L394.854,216.506 C394.885,216.603 394.92,216.698 394.956,216.793 L395.608,218.492 C395.644,218.591 395.684,218.687 395.727,218.783 L396.342,220.167 L396.401,220.295 C396.941,221.437 397.55,222.546 398.224,223.613 L398.254,223.66 C398.397,223.884 398.553,224.099 398.724,224.304 L402.981,229.395 C403.307,229.785 403.681,230.131 404.094,230.425 L409.174,234.056 C409.502,234.291 409.854,234.493 410.223,234.656 L413.994,236.33 C414.236,236.438 414.485,236.529 414.74,236.603 L417.48,237.405 C417.653,237.456 417.829,237.499 418.006,237.533 L420.072,237.939 C420.199,237.964 420.327,237.985 420.454,238.001 L422.087,238.212 C422.183,238.224 422.278,238.234 422.374,238.242 L423.727,238.35 L423.949,238.364 L425.115,238.414 L425.292,238.419 L426.334,238.433 L426.476,238.433 L427.434,238.422 L427.552,238.42 L428.451,238.392 L428.569,238.388 L429.766,238.327 L429.895,238.319 L431.489,238.204 L431.609,238.194 L433.249,238.042 L434.983,237.854 L436.71,237.641 L438.447,237.408 L440.196,237.156 L441.964,236.885 L443.744,236.598 L445.537,236.296 L448.189,235.826 L451.734,235.16 L455.264,234.453 L457.888,233.899 L459.615,233.517 L461.254,233.142 L462.849,232.763 L464.4,232.379 L465.911,231.987 L467.393,231.584 L468.863,231.157 L468.978,231.122 L470.359,230.691 L470.492,230.648 L471.661,230.252 L471.792,230.206 L472.693,229.878 L472.799,229.838 L473.369,229.617 C473.5,229.566 473.597,229.527 473.694,229.488 L474.376,229.211 L476.162,228.458 L476.273,228.409 L478.074,227.605 L478.193,227.55 L479.966,226.711 L480.086,226.653 L481.829,225.78 L481.949,225.718 L483.663,224.811 L483.783,224.746 L485.467,223.805 L485.586,223.736 L487.239,222.761 L487.36,222.688 L488.982,221.679 L489.101,221.602 L490.69,220.561 L490.811,220.48 L492.367,219.405 L492.486,219.32 L494.01,218.212 L494.128,218.124 L495.617,216.984 L495.735,216.891 L497.189,215.719 L497.306,215.623 L498.725,214.418 L498.839,214.318 L500.222,213.083 L500.335,212.979 L501.681,211.714 L501.793,211.606 L503.101,210.311 L503.209,210.2 L504.479,208.875 L504.586,208.76 L505.816,207.408 L505.921,207.29 L507.11,205.911 L507.212,205.789 L508.362,204.384 L508.46,204.259 L509.569,202.828 L509.665,202.701 L510.731,201.246 L510.824,201.115 L511.848,199.636 L511.937,199.504 L512.918,198.003 L513.004,197.867 L513.941,196.346 L514.024,196.208 L514.917,194.667 L514.996,194.527 L515.845,192.967 L515.92,192.826 L516.725,191.25 L516.812,191.073 L517.866,188.83 C517.903,188.751 517.939,188.671 517.973,188.59 L519.261,185.506 C519.301,185.413 519.338,185.318 519.372,185.223 L520.552,181.941 C520.588,181.841 520.621,181.742 520.651,181.642 L521.652,178.323 C521.682,178.224 521.71,178.125 521.735,178.024 L522.56,174.676 C522.584,174.577 522.606,174.478 522.626,174.378 L523.277,171.011 C523.296,170.913 523.313,170.814 523.327,170.714 L523.807,167.337 C523.82,167.24 523.832,167.142 523.841,167.043 L524.153,163.664 C524.162,163.566 524.169,163.47 524.173,163.373 L524.321,159.998 C524.326,159.903 524.327,159.808 524.327,159.712 L524.315,156.347 C524.315,156.254 524.312,156.16 524.307,156.067 L524.139,152.719 C524.134,152.628 524.128,152.536 524.12,152.444 L523.799,149.118 C523.791,149.029 523.781,148.939 523.768,148.85 L523.301,145.551 C523.288,145.463 523.274,145.376 523.257,145.288 L522.647,142.019 C522.631,141.934 522.613,141.849 522.593,141.765 L521.843,138.531 C521.824,138.447 521.803,138.364 521.78,138.282 L520.893,135.086 C520.871,135.005 520.847,134.924 520.821,134.844 L519.801,131.69 C519.776,131.611 519.749,131.532 519.721,131.455 L518.571,128.345 C518.543,128.268 518.513,128.192 518.482,128.116 L517.207,125.054 C517.176,124.98 517.144,124.906 517.109,124.832 L515.71,121.82 C515.676,121.748 515.642,121.677 515.606,121.606 L514.086,118.647 C514.05,118.576 514.012,118.507 513.973,118.438 L512.334,115.534 C512.295,115.466 512.255,115.399 512.214,115.332 L510.459,112.488 C510.418,112.422 510.376,112.356 510.333,112.292 L508.462,109.509 C508.42,109.445 508.376,109.381 508.33,109.319 L506.346,106.601 C506.301,106.539 506.255,106.478 506.208,106.418 L504.113,103.766 C504.066,103.706 504.018,103.647 503.968,103.589 L501.765,101.009 C501.715,100.951 501.664,100.894 501.612,100.838 L499.302,98.331 C499.25,98.275 499.198,98.22 499.144,98.167 L496.727,95.737 C496.673,95.683 496.619,95.631 496.563,95.579 L494.041,93.23 C493.987,93.178 493.93,93.128 493.872,93.078 L491.248,90.813 C491.191,90.764 491.132,90.716 491.073,90.668 L488.348,88.491 C488.288,88.444 488.228,88.398 488.167,88.353 L485.342,86.267 C485.281,86.222 485.22,86.178 485.157,86.135 L482.235,84.146 C482.172,84.103 482.109,84.061 482.044,84.021 L479.026,82.13 C478.962,82.089 478.897,82.05 478.83,82.012 L475.72,80.225 L475.543,80.128 L473.045,78.802 L472.912,78.734 L471.181,77.87 L471.072,77.817 L469.424,77.037 L469.32,76.989 L467.652,76.237 L467.547,76.191 L465.856,75.468 L465.75,75.424 L464.039,74.731 L463.933,74.689 L462.2,74.026 L462.093,73.987 L460.341,73.354 L460.232,73.316 L458.461,72.715 L458.352,72.679 L456.56,72.11 L456.45,72.077 L454.64,71.539 L454.53,71.507 L452.701,71.002 L452.591,70.973 L451.709,70.748 L451.741,69.119 L451.792,66.218 L451.854,61.848 L451.913,56.009 L451.951,50.202 L451.968,45.902 L451.975,43.073 L451.98,40.292 L451.983,37.564 L451.984,34.9 L451.984,32.307 L451.984,31.039 C451.985,13.897 438.15,-0 421.083,-0 z M266.547,67.712 L267.473,67.733 L268.231,67.77 C268.332,67.774 268.432,67.777 268.533,67.777 C269.429,67.775 269.684,67.783 270.128,67.808 C270.882,67.836 270.463,67.838 271.383,67.776 L271.579,67.789 C271.703,67.797 271.828,67.802 271.952,67.802 L272.191,67.803 L272.925,67.822 L273.633,67.857 L274.318,67.906 L274.98,67.97 L275.619,68.046 L276.238,68.136 L276.843,68.238 L277.429,68.351 L277.993,68.475 L278.541,68.608 L279.083,68.755 L279.606,68.911 L280.121,69.078 L280.621,69.254 L281.117,69.442 L281.599,69.639 L282.078,69.849 L282.551,70.07 L283.015,70.301 L283.479,70.547 L283.939,70.803 L284.393,71.072 L284.847,71.356 L285.302,71.655 L285.749,71.964 L286.2,72.292 L286.65,72.635 L287.101,72.995 L287.548,73.369 L288.046,73.805 L288.376,74.102 L288.964,74.659 L289.876,75.593 L290.779,76.596 L291.676,77.677 L292.564,78.833 L293.445,80.073 L294.31,81.385 L295.157,82.774 L295.986,84.237 L296.793,85.774 L297.575,87.381 L298.327,89.048 L299.051,90.785 L299.741,92.579 L300.396,94.426 L301.016,96.329 L301.599,98.279 L302.14,100.271 L302.642,102.309 L303.1,104.373 L303.517,106.477 L303.889,108.603 L304.218,110.756 L304.502,112.928 L304.742,115.112 L304.934,117.299 L305.082,119.503 L305.185,121.701 L305.242,123.902 L305.254,126.087 L305.222,128.26 L305.145,130.42 L305.026,132.558 L304.862,134.666 L304.658,136.75 L304.413,138.79 L304.129,140.796 L303.806,142.756 L303.448,144.666 L303.056,146.516 L302.63,148.315 L302.177,150.043 L301.697,151.704 L301.193,153.291 L300.669,154.802 L300.129,156.225 L299.583,157.552 L298.935,158.982 L298.461,159.956 L298.458,159.962 L298.427,160.025 L297.831,161.162 L297.227,162.241 L296.612,163.269 L295.988,164.247 L295.356,165.181 L294.716,166.069 L294.074,166.905 L293.426,167.701 L292.775,168.451 L292.121,169.162 L291.467,169.829 L290.815,170.455 L290.159,171.047 L289.512,171.595 L288.863,172.109 L288.217,172.589 L287.577,173.033 L286.94,173.444 L286.309,173.823 L285.679,174.174 L285.061,174.491 L284.444,174.782 L283.834,175.045 L283.231,175.281 L282.63,175.492 L282.036,175.679 L281.448,175.841 L280.864,175.979 L280.281,176.097 L279.701,176.192 L279.129,176.265 L278.558,176.318 L277.982,176.35 L277.413,176.362 L276.839,176.352 L276.265,176.322 L275.687,176.27 L275.105,176.197 L274.521,176.101 L273.928,175.982 L273.331,175.839 L272.727,175.671 L272.11,175.475 L271.488,175.252 L270.852,174.999 L270.211,174.715 L269.555,174.398 L268.888,174.046 L268.21,173.655 L267.521,173.228 L266.824,172.759 L266.111,172.244 L265.39,171.686 L264.659,171.08 L263.919,170.424 L263.169,169.715 L262.414,168.952 L261.651,168.133 L260.885,167.259 L260.117,166.323 L259.343,165.323 L258.579,164.269 L257.713,162.993 L257.147,162.115 L257.076,162.001 L256.564,161.167 L256.04,160.275 L255.522,159.359 L255.009,158.416 L254.49,157.419 L254.001,156.438 L253.588,155.577 L252.926,154.135 L252.036,152.034 L251.204,149.888 L250.437,147.709 L249.733,145.496 L249.097,143.264 L248.535,141.033 L248.045,138.8 L247.631,136.587 L247.293,134.4 L247.033,132.269 L246.834,129.953 L246.759,128.594 L246.66,126.46 L246.471,121.827 L246.346,117.385 L246.303,112.976 L246.341,109.747 L246.402,107.681 L246.489,105.766 L246.61,103.859 L246.762,102.032 L246.945,100.264 L247.158,98.595 L247.435,96.811 L247.623,95.763 L247.728,95.207 L248.066,93.532 L248.442,91.827 L248.851,90.123 L249.291,88.435 L249.763,86.775 L250.265,85.151 L250.796,83.57 L251.354,82.038 L251.934,80.576 L252.532,79.185 L253.148,77.871 L253.768,76.654 L254.46,75.42 L255.004,74.528 L255.315,74.045 L255.632,73.576 L255.945,73.133 L256.254,72.716 L256.559,72.324 L256.861,71.954 L257.153,71.613 L257.442,71.294 L257.723,70.997 L258,70.72 L258.264,70.47 L258.529,70.232 L258.781,70.019 L259.033,69.818 L259.278,69.633 L259.523,69.461 L259.765,69.301 L260.003,69.155 L260.252,69.014 L260.502,68.882 L260.757,68.757 L261.029,68.636 L261.315,68.52 L261.619,68.41 L261.947,68.303 L262.302,68.201 L262.688,68.104 L263.108,68.013 L263.569,67.931 L264.074,67.858 L264.62,67.798 L265.218,67.752 L265.863,67.722 L266.547,67.712 z M266.486,55.697 L265.6,55.71 L265.414,55.715 L264.578,55.753 L264.389,55.765 L263.601,55.826 L263.405,55.845 L262.663,55.927 L262.468,55.952 L261.769,56.052 L261.57,56.084 L260.912,56.203 L260.712,56.242 L260.092,56.375 L259.893,56.421 L259.307,56.568 L259.106,56.622 L258.553,56.781 L258.356,56.841 L257.83,57.013 L257.634,57.081 L257.135,57.262 L256.944,57.336 L256.468,57.528 L256.279,57.608 L255.823,57.812 L255.639,57.897 L255.2,58.11 L255.02,58.201 L254.596,58.426 L254.424,58.521 L254.01,58.757 L253.844,58.855 L253.439,59.104 L253.28,59.205 L252.882,59.468 L252.729,59.572 L252.336,59.849 L252.19,59.954 L251.8,60.247 L251.66,60.356 L251.272,60.665 L251.139,60.775 L250.753,61.103 L250.626,61.213 L250.239,61.559 L250.118,61.671 L249.731,62.038 L249.614,62.151 L249.228,62.539 L249.119,62.65 L248.731,63.058 L248.626,63.172 L248.237,63.604 L248.138,63.716 L247.747,64.172 L247.655,64.283 L247.264,64.761 L247.175,64.872 L246.784,65.375 L246.702,65.484 L246.311,66.011 L246.232,66.121 L245.842,66.672 L245.769,66.778 L245.381,67.353 L245.311,67.459 L244.924,68.057 L244.846,68.184 L244.204,69.236 C244.165,69.3 244.127,69.364 244.09,69.429 L243.286,70.866 C243.247,70.935 243.209,71.004 243.173,71.075 L242.454,72.486 L242.367,72.665 L241.669,74.154 L241.592,74.326 L240.92,75.887 L240.852,76.051 L240.208,77.675 L240.15,77.831 L239.538,79.51 L239.486,79.656 L238.907,81.381 L238.862,81.52 L238.318,83.282 L238.28,83.413 L237.771,85.202 L237.737,85.326 L237.266,87.132 L237.236,87.25 L236.8,89.065 L236.775,89.175 L236.376,90.989 L236.354,91.092 L235.99,92.897 L235.86,93.582 L235.65,94.752 L235.627,94.89 L235.327,96.823 L235.303,96.987 L235.071,98.813 L235.055,98.95 L234.859,100.843 L234.847,100.969 L234.684,102.924 L234.676,103.041 L234.549,105.055 L234.543,105.162 L234.449,107.23 L234.383,109.444 L234.381,109.552 L234.341,112.899 L234.341,113.028 L234.386,117.56 L234.388,117.672 L234.517,122.242 L234.709,126.984 L234.813,129.211 L234.896,130.716 L234.909,130.892 L235.124,133.405 L235.146,133.621 L235.432,135.96 L235.458,136.152 L235.825,138.526 L235.857,138.713 L236.307,141.112 L236.344,141.295 L236.873,143.708 L236.916,143.889 L237.524,146.304 L237.572,146.482 L238.258,148.888 L238.311,149.064 L239.069,151.451 L239.128,151.627 L239.959,153.985 L240.024,154.161 L240.922,156.479 L240.993,156.655 L241.955,158.923 L242.025,159.08 L242.744,160.651 L242.793,160.755 L243.273,161.75 L243.845,162.898 L244.437,164.036 L244.486,164.127 L245.044,165.155 L245.094,165.247 L245.663,166.253 L245.716,166.345 L246.295,167.328 L246.351,167.42 L246.939,168.38 L247.08,168.604 L247.706,169.576 L247.786,169.697 L248.747,171.115 L248.859,171.274 L249.734,172.479 L249.841,172.621 L250.721,173.76 L250.834,173.901 L251.72,174.979 L251.838,175.119 L252.727,176.134 L252.851,176.272 L253.74,177.229 L253.872,177.366 L254.762,178.263 L254.9,178.396 L255.788,179.237 L255.931,179.368 L256.818,180.155 L256.968,180.283 L257.852,181.016 L258.008,181.141 L258.888,181.822 L259.05,181.944 L259.926,182.575 L260.092,182.691 L260.962,183.275 L261.136,183.387 L262.001,183.925 L262.179,184.032 L263.038,184.526 L263.221,184.627 L264.073,185.077 L264.263,185.174 L265.108,185.583 L265.3,185.672 L266.139,186.043 L266.336,186.126 L267.168,186.458 L267.371,186.534 L268.197,186.83 L268.4,186.898 L269.22,187.159 L269.428,187.221 L270.243,187.447 L270.453,187.501 L271.262,187.696 L271.474,187.742 L272.278,187.904 L272.492,187.943 L273.292,188.073 L273.507,188.105 L274.304,188.205 L274.519,188.228 L275.312,188.299 L275.528,188.315 L276.319,188.357 L276.536,188.364 L277.324,188.377 L277.539,188.377 L278.326,188.362 L278.541,188.353 L279.328,188.309 L279.539,188.293 L280.325,188.221 L280.539,188.197 L281.324,188.097 L281.535,188.066 L282.321,187.936 L282.529,187.898 L283.317,187.74 L283.52,187.695 L284.309,187.508 L284.511,187.455 L285.302,187.237 L285.501,187.179 L286.292,186.931 L286.489,186.866 L287.282,186.586 L287.473,186.515 L288.268,186.205 L288.457,186.127 L289.253,185.783 L289.437,185.701 L290.235,185.325 L290.415,185.236 L291.215,184.825 L291.39,184.731 L292.191,184.286 L292.362,184.187 L293.163,183.706 L293.329,183.603 L294.13,183.085 L294.293,182.976 L295.092,182.421 L295.25,182.309 L296.049,181.715 L296.201,181.599 L296.998,180.966 L297.146,180.845 L297.94,180.172 L298.083,180.048 L298.875,179.334 L299.012,179.207 L299.799,178.45 L299.931,178.32 L300.713,177.521 L300.84,177.388 L301.617,176.545 L301.737,176.41 L302.507,175.521 L302.623,175.383 L303.385,174.449 L303.495,174.31 L304.247,173.33 L304.352,173.188 L305.093,172.16 L305.193,172.017 L305.923,170.942 L306.018,170.797 L306.734,169.672 L306.824,169.527 L307.526,168.352 L307.611,168.205 L308.297,166.981 L308.377,166.834 L309.046,165.558 L309.111,165.431 L309.359,164.928 L309.37,164.899 L309.716,164.188 L309.788,164.034 L310.513,162.433 L310.596,162.242 L311.215,160.74 L311.278,160.58 L311.879,158.995 L311.936,158.836 L312.514,157.172 L312.565,157.019 L313.117,155.281 L313.162,155.132 L313.685,153.324 L313.725,153.177 L314.216,151.303 L314.252,151.161 L314.71,149.225 L314.741,149.086 L315.162,147.095 L315.19,146.958 L315.574,144.914 L315.597,144.781 L315.941,142.689 L315.961,142.558 L316.264,140.423 L316.282,140.293 L316.542,138.12 L316.556,137.993 L316.772,135.786 L316.784,135.659 L316.957,133.423 L316.965,133.297 L317.091,131.036 L317.097,130.911 L317.179,128.629 L317.182,128.504 L317.216,126.205 L317.217,126.081 L317.204,123.769 L317.202,123.645 L317.141,121.325 L317.137,121.202 L317.028,118.878 L317.021,118.754 L316.865,116.43 L316.855,116.306 L316.651,113.986 L316.639,113.861 L316.385,111.551 L316.37,111.423 L316.069,109.126 L316.051,108.998 L315.704,106.717 L315.682,106.588 L315.286,104.329 L315.262,104.196 L314.818,101.962 L314.79,101.828 L314.301,99.623 L314.269,99.487 L313.734,97.316 L313.698,97.177 L313.119,95.043 L313.078,94.901 L312.454,92.809 L312.409,92.664 L311.741,90.617 L311.691,90.469 L310.983,88.47 L310.927,88.32 L310.177,86.373 L310.116,86.219 L309.328,84.33 L309.26,84.172 L308.435,82.341 L308.359,82.18 L307.499,80.413 L307.416,80.25 L306.523,78.549 L306.431,78.38 L305.506,76.747 L305.405,76.577 L304.452,75.015 L304.342,74.841 L303.361,73.353 L303.241,73.177 L302.237,71.764 L302.105,71.586 L301.078,70.248 C301.032,70.187 300.985,70.128 300.935,70.069 L299.889,68.808 C299.838,68.747 299.786,68.687 299.733,68.628 L298.669,67.446 C298.614,67.385 298.558,67.326 298.501,67.266 L297.421,66.161 C297.366,66.105 297.31,66.05 297.253,65.996 L296.526,65.307 L296.418,65.208 L295.967,64.801 L295.353,64.264 L295.252,64.178 L294.702,63.717 L294.597,63.632 L294.043,63.188 L293.936,63.105 L293.378,62.68 L293.269,62.599 L292.707,62.191 L292.593,62.109 L292.027,61.719 L291.911,61.64 L291.341,61.265 L291.224,61.19 L290.65,60.83 L290.527,60.756 L289.948,60.414 L289.822,60.342 L289.237,60.014 L289.111,59.946 L288.521,59.634 L288.391,59.567 L287.794,59.27 L287.661,59.206 L287.056,58.924 L286.923,58.864 L286.311,58.596 L286.175,58.538 L285.554,58.284 L285.417,58.23 L284.786,57.991 L284.648,57.94 L284.006,57.713 L283.868,57.667 L283.215,57.455 L283.072,57.41 L282.406,57.213 L282.266,57.173 L281.587,56.99 L281.446,56.953 L280.752,56.783 L280.611,56.75 L279.902,56.595 L279.76,56.566 L279.035,56.426 L278.893,56.4 L278.15,56.275 L278.008,56.253 L277.246,56.144 L277.107,56.124 L276.325,56.031 L276.186,56.016 L275.383,55.939 L275.245,55.927 L274.421,55.868 L274.284,55.86 L273.438,55.818 L273.302,55.813 L272.433,55.791 L272.304,55.789 L272.19,55.788 L271.605,55.749 C270.773,55.739 271.167,55.72 270.424,55.793 C269.84,55.763 269.256,55.762 268.672,55.762 L267.974,55.728 L267.814,55.722 L266.701,55.698 L266.486,55.697 z M265.648,17.661 L267.819,17.666 L269.866,17.727 L270.493,17.758 L270.624,17.771 C270.889,17.797 271.154,17.806 271.419,17.797 L272.835,17.748 L273.786,17.767 L275.682,17.837 L277.557,17.951 L279.414,18.108 L281.253,18.307 L283.082,18.549 L284.89,18.834 L286.683,19.161 L288.458,19.531 L290.216,19.942 L291.949,20.393 L293.673,20.886 L295.363,21.417 L297.043,21.991 L298.694,22.599 L300.326,23.248 L301.934,23.934 L303.513,24.654 L305.076,25.413 L306.613,26.206 L308.118,27.029 L309.604,27.89 L311.056,28.777 L312.494,29.701 L313.894,30.65 L315.274,31.632 L316.624,32.639 L317.952,33.677 L319.245,34.737 L320.513,35.822 L321.756,36.932 L323.048,38.142 L324.9,39.973 L327.171,42.386 L329.327,44.865 L331.38,47.418 L333.331,50.036 L335.186,52.718 L336.943,55.456 L338.606,58.248 L340.178,61.09 L341.663,63.981 L343.058,66.91 L344.368,69.878 L345.597,72.888 L346.743,75.924 L347.811,78.997 L348.798,82.089 L349.712,85.217 L350.548,88.358 L351.313,91.525 L352.002,94.704 L352.621,97.902 L353.169,101.111 L353.646,104.33 L354.055,107.555 L354.395,110.782 L354.668,114.02 L354.873,117.252 L355.011,120.485 L355.083,123.709 L355.088,126.931 L355.027,130.138 L354.901,133.336 L354.709,136.525 L354.451,139.691 L354.127,142.847 L353.739,145.968 L353.282,149.081 L352.759,152.159 L352.168,155.219 L351.51,158.239 L350.783,161.234 L349.984,164.196 L349.115,167.119 L348.173,170.005 L347.156,172.85 L346.061,175.659 L344.886,178.419 L343.707,180.979 L343.223,181.972 C343.18,182.06 343.138,182.145 343.095,182.229 L342.401,183.589 L341.121,185.97 L339.797,188.275 L338.418,190.524 L336.985,192.717 L335.499,194.851 L333.965,196.92 L332.378,198.934 L330.746,200.88 L329.062,202.768 L327.331,204.592 L325.559,206.346 L323.739,208.037 L321.877,209.661 L319.974,211.216 L318.031,212.702 L316.048,214.117 L314.028,215.461 L311.975,216.73 L309.884,217.929 L307.764,219.05 L305.611,220.097 L303.427,221.069 L301.224,221.959 L298.988,222.773 L296.73,223.507 L294.452,224.16 L292.159,224.73 L289.842,225.22 L287.518,225.625 L285.172,225.949 L282.823,226.187 L280.465,226.34 L278.098,226.409 L275.733,226.392 L273.362,226.289 L270.997,226.101 L268.634,225.826 L266.279,225.465 L263.931,225.018 L261.596,224.485 L259.275,223.866 L256.972,223.163 L254.681,222.374 L252.419,221.503 L250.176,220.547 L247.959,219.509 L245.769,218.389 L243.607,217.187 L241.478,215.905 L239.383,214.545 L237.321,213.106 L235.295,211.589 L233.307,209.996 L231.358,208.326 L229.45,206.582 L227.584,204.765 L225.764,202.879 L223.981,200.913 L222.25,198.883 L220.562,196.78 L218.92,194.607 L217.326,192.364 L215.862,190.181 L215.276,189.271 C215.237,189.21 215.197,189.148 215.158,189.086 L214.57,188.144 L213.594,186.532 L212.634,184.882 L211.702,183.213 L210.796,181.523 L209.917,179.817 L209.071,178.103 L208.213,176.29 L206.995,173.571 L205.518,170.008 L204.155,166.405 L202.903,162.761 L201.761,159.075 L200.733,155.359 L199.821,151.613 L199.025,147.842 L198.348,144.05 L197.794,140.249 L197.364,136.429 L197.073,132.786 L196.989,131.29 C196.984,131.194 196.984,131.194 196.979,131.094 L196.859,128.48 L196.649,123.203 L196.508,117.823 L196.467,112.343 L196.524,108.199 L196.616,105.361 L196.756,102.492 L196.952,99.588 L197.208,96.67 L197.532,93.733 L197.929,90.773 L198.381,87.953 L198.588,86.795 C198.6,86.726 198.614,86.654 198.628,86.582 L198.898,85.175 L199.424,82.625 L200.017,79.982 L200.676,77.289 L201.405,74.555 L202.212,71.777 L203.101,68.966 L204.078,66.128 L205.149,63.268 L206.322,60.398 L207.604,57.518 L208.998,54.644 L210.52,51.773 L212.113,49.02 L213.37,47.007 L214.282,45.629 L215.249,44.237 L216.246,42.867 L217.287,41.506 L218.368,40.159 L219.491,38.833 L220.654,37.525 L221.864,36.237 L223.117,34.972 L224.415,33.734 L225.758,32.525 L227.146,31.344 L228.582,30.197 L230.061,29.088 L231.59,28.012 L233.158,26.982 L234.775,25.993 L236.436,25.048 L238.139,24.153 L239.885,23.308 L241.667,22.518 L243.493,21.78 L245.354,21.099 L247.25,20.477 L249.178,19.915 L251.146,19.412 L253.136,18.973 L255.154,18.596 L257.206,18.281 L259.282,18.031 L261.38,17.843 L263.503,17.72 L265.648,17.661 z M265.586,5.646 L265.409,5.649 L263.085,5.712 L262.905,5.72 L260.599,5.853 L260.416,5.867 L258.131,6.071 L257.945,6.09 L255.683,6.363 L255.495,6.389 L253.256,6.732 L253.065,6.764 L250.854,7.178 L250.663,7.217 L248.478,7.699 L248.287,7.745 L246.133,8.295 L245.942,8.347 L243.821,8.966 L243.63,9.025 L241.543,9.71 L241.356,9.775 L239.306,10.524 L239.12,10.596 L237.111,11.408 L236.927,11.485 L234.96,12.359 L234.78,12.442 L232.857,13.373 L232.68,13.462 L230.803,14.448 L230.631,14.542 L228.802,15.582 L228.634,15.681 L226.854,16.77 L226.693,16.873 L224.962,18.01 L224.806,18.116 L223.126,19.297 L222.976,19.405 L221.349,20.628 L221.204,20.739 L219.628,21.999 L219.491,22.113 L217.966,23.406 L217.835,23.522 L216.364,24.848 L216.238,24.964 L214.817,26.319 L214.699,26.436 L213.33,27.817 L213.218,27.934 L211.899,29.338 L211.792,29.455 L210.522,30.881 L210.422,30.997 L209.201,32.44 L209.107,32.556 L207.933,34.016 L207.844,34.13 L206.716,35.604 L206.633,35.717 L205.551,37.203 L205.471,37.314 L204.434,38.811 L204.359,38.92 L203.363,40.425 L203.278,40.557 L201.929,42.718 L201.824,42.892 L200.121,45.834 L200.014,46.028 L198.39,49.091 L198.293,49.282 L196.806,52.344 L196.722,52.526 L195.363,55.58 L195.29,55.752 L194.049,58.792 L193.986,58.954 L192.855,61.97 L192.8,62.123 L191.772,65.111 L191.724,65.255 L190.79,68.207 L190.749,68.343 L189.904,71.252 L189.868,71.381 L189.105,74.243 L189.074,74.363 L188.387,77.172 L188.36,77.284 L187.743,80.033 L187.72,80.139 L187.169,82.82 L186.881,84.314 C186.858,84.437 186.837,84.549 186.817,84.662 L186.599,85.878 L186.58,85.989 L186.107,88.942 L186.085,89.09 L185.668,92.195 L185.65,92.339 L185.311,95.416 L185.298,95.548 L185.031,98.595 L185.021,98.716 L184.817,101.731 L184.811,101.842 L184.666,104.823 L184.662,104.923 L184.566,107.868 L184.564,107.979 L184.505,112.24 L184.504,112.368 L184.546,117.972 L184.548,118.087 L184.695,123.602 L184.909,128.997 L185.031,131.654 C185.039,131.812 185.039,131.812 185.046,131.963 L185.135,133.538 L185.144,133.68 L185.448,137.487 L185.467,137.68 L185.919,141.694 L185.944,141.889 L186.526,145.887 L186.557,146.077 L187.267,150.055 L187.303,150.242 L188.139,154.196 L188.18,154.378 L189.136,158.305 L189.183,158.484 L190.261,162.38 L190.313,162.557 L191.508,166.417 L191.565,166.593 L192.878,170.414 L192.941,170.588 L194.371,174.365 L194.44,174.54 L195.986,178.268 L196.051,178.421 L197.328,181.275 L197.381,181.389 L198.287,183.304 L198.332,183.397 L199.226,185.206 L199.271,185.295 L200.195,187.089 L200.242,187.178 L201.195,188.956 L201.245,189.046 L202.229,190.807 L202.281,190.898 L203.294,192.641 L203.349,192.733 L204.394,194.458 L205.031,195.48 C205.101,195.591 205.164,195.691 205.229,195.792 L205.844,196.748 L205.907,196.843 L207.451,199.145 L207.544,199.279 L209.236,201.66 L209.339,201.8 L211.085,204.112 L211.194,204.252 L212.992,206.493 L213.107,206.632 L214.958,208.801 L215.079,208.938 L216.981,211.036 L217.107,211.171 L219.059,213.195 L219.192,213.328 L221.193,215.276 L221.331,215.407 L223.38,217.279 L223.524,217.406 L225.619,219.201 L225.77,219.325 L227.911,221.042 L228.066,221.162 L230.25,222.798 L230.412,222.914 L232.638,224.469 L232.805,224.581 L235.071,226.052 L235.243,226.16 L237.547,227.547 L237.724,227.649 L240.066,228.951 L240.248,229.049 L242.623,230.263 L242.809,230.354 L245.216,231.482 L245.408,231.567 L247.843,232.605 L248.038,232.684 L250.502,233.632 L250.701,233.706 L253.188,234.563 L253.39,234.628 L255.899,235.394 L256.106,235.453 L258.634,236.127 L258.842,236.178 L261.387,236.758 L261.597,236.802 L264.155,237.289 L264.367,237.326 L266.936,237.72 L267.151,237.749 L269.726,238.048 L269.942,238.069 L272.523,238.275 L272.739,238.288 L275.322,238.4 L275.538,238.406 L278.121,238.425 L278.337,238.422 L280.917,238.347 L281.131,238.337 L283.704,238.17 L283.918,238.152 L286.482,237.892 L286.694,237.867 L289.247,237.515 L289.457,237.482 L291.995,237.039 L292.204,236.999 L294.725,236.466 L294.931,236.419 L297.432,235.796 L297.635,235.742 L300.115,235.031 L300.315,234.97 L302.77,234.172 L302.966,234.104 L305.394,233.22 L305.589,233.146 L307.988,232.177 L308.177,232.097 L310.546,231.043 L310.731,230.957 L313.067,229.821 L313.247,229.73 L315.548,228.512 L315.724,228.415 L317.988,227.118 L318.16,227.015 L320.385,225.639 L320.551,225.532 L322.735,224.079 L322.898,223.967 L325.04,222.438 L325.197,222.322 L327.295,220.718 L327.447,220.598 L329.5,218.921 L329.647,218.798 L331.653,217.049 L331.794,216.921 L333.752,215.101 L333.888,214.971 L335.796,213.082 L335.927,212.948 L337.784,210.991 L337.91,210.855 L339.714,208.831 L339.835,208.693 L341.586,206.603 L341.701,206.463 L343.398,204.311 L343.507,204.167 L345.149,201.953 L345.253,201.807 L346.838,199.53 L346.936,199.384 L348.464,197.046 L348.557,196.9 L350.027,194.503 L350.115,194.355 L351.524,191.9 L351.607,191.752 L352.957,189.241 L353.016,189.129 L353.747,187.697 C353.828,187.538 353.899,187.394 353.968,187.251 L354.478,186.206 L354.535,186.087 L355.78,183.385 L355.852,183.222 L357.097,180.292 L357.166,180.124 L358.325,177.156 L358.385,176.993 L359.46,173.987 L359.514,173.828 L360.507,170.786 L360.554,170.633 L361.469,167.558 L361.511,167.409 L362.349,164.301 L362.386,164.157 L363.148,161.02 L363.18,160.878 L363.87,157.713 L363.898,157.575 L364.515,154.383 L364.54,154.248 L365.085,151.032 L365.106,150.899 L365.581,147.659 L365.599,147.529 L366.005,144.269 L366.02,144.14 L366.357,140.862 L366.368,140.735 L366.636,137.44 L366.645,137.313 L366.844,134.003 L366.851,133.878 L366.983,130.554 L366.986,130.43 L367.049,127.096 L367.05,126.971 L367.044,123.628 L367.043,123.504 L366.968,120.154 L366.964,120.031 L366.821,116.676 L366.814,116.551 L366.601,113.193 L366.592,113.069 L366.309,109.71 L366.298,109.585 L365.944,106.227 L365.929,106.101 L365.505,102.748 L365.488,102.621 L364.99,99.274 L364.969,99.145 L364.399,95.805 L364.375,95.674 L363.731,92.346 L363.704,92.213 L362.985,88.898 L362.954,88.762 L362.157,85.461 L362.123,85.324 L361.249,82.041 L361.209,81.901 L360.256,78.637 L360.213,78.495 L359.178,75.253 L359.129,75.107 L358.012,71.89 L357.957,71.742 L356.754,68.552 L356.695,68.401 L355.404,65.242 L355.338,65.087 L353.958,61.961 L353.886,61.803 L352.413,58.713 L352.335,58.552 L350.768,55.501 L350.68,55.336 L349.016,52.329 L348.921,52.162 L347.156,49.201 L347.052,49.031 L345.184,46.121 L345.07,45.949 L343.096,43.095 L342.972,42.921 L340.889,40.127 L340.754,39.952 L338.56,37.225 C338.512,37.165 338.462,37.107 338.412,37.049 L336.103,34.393 C336.052,34.334 335.999,34.275 335.944,34.217 L333.519,31.641 L333.369,31.488 L331.381,29.521 L331.261,29.406 L329.859,28.094 L329.759,28.002 L328.42,26.806 L328.322,26.721 L326.954,25.548 L326.853,25.464 L325.453,24.319 L325.349,24.235 L323.919,23.118 L323.813,23.036 L322.353,21.947 L322.243,21.866 L320.753,20.806 L320.64,20.728 L319.121,19.699 L319.004,19.622 L317.455,18.625 L317.335,18.55 L315.757,17.586 L315.635,17.513 L314.028,16.583 L313.903,16.513 L312.269,15.619 L312.141,15.551 L310.478,14.692 L310.348,14.627 L308.657,13.806 L308.525,13.744 L306.809,12.961 L306.674,12.902 L304.932,12.159 L304.795,12.103 L303.028,11.4 L302.889,11.347 L301.098,10.686 L300.959,10.637 L299.143,10.018 L299.003,9.972 L297.165,9.395 L297.023,9.353 L295.164,8.819 L295.023,8.78 L293.143,8.291 L292.999,8.256 L291.099,7.812 L290.957,7.78 L289.038,7.381 L288.895,7.353 L286.958,7 L286.816,6.976 L284.862,6.667 L284.719,6.647 L282.752,6.386 L282.609,6.369 L280.625,6.154 L280.484,6.14 L278.486,5.971 L278.346,5.961 L276.334,5.84 L276.196,5.833 L274.172,5.758 L274.067,5.755 L272.909,5.732 C272.802,5.73 272.696,5.731 272.588,5.735 L271.397,5.775 C271.324,5.769 271.381,5.774 271.224,5.764 L270.387,5.723 L270.274,5.719 L268.091,5.654 L267.928,5.652 L265.586,5.646 z M285.939,92.794 C286.976,92.977 288.016,93.155 289.057,93.319 L289.145,93.351 C289.635,93.519 290.123,93.69 290.613,93.858 C296.399,96.77 298.828,103.16 296.462,109.315 L296.236,109.834 L295.782,110.884 L295.301,112.018 L294.787,113.24 L294.245,114.545 L293.677,115.922 L293.087,117.362 L292.478,118.857 L291.531,121.191 L290.228,124.419 L288.896,127.725 L287.554,131.057 L286.224,134.352 L285.243,136.77 L284.601,138.344 L283.973,139.875 L283.361,141.359 L282.766,142.79 L282.19,144.163 L281.636,145.469 L281.103,146.706 L280.596,147.87 L280.11,148.956 L279.647,149.966 L279.231,150.842 L278.803,151.706 L278.345,152.575 L277.959,153.259 C274.745,158.817 267.555,160.732 261.944,157.459 C256.46,154.135 254.64,147.285 257.729,141.264 L257.735,141.253 L257.905,140.921 L257.995,140.74 L258.256,140.195 L258.637,139.371 L259.057,138.432 L259.514,137.391 L260.003,136.253 L260.525,135.027 L261.073,133.72 L261.645,132.344 L262.239,130.903 L262.851,129.41 L263.478,127.873 L264.445,125.493 L265.769,122.212 L267.113,118.876 L268.455,115.542 L269.775,112.273 L270.738,109.901 L271.364,108.364 L271.976,106.87 L272.571,105.428 L273.147,104.044 L273.704,102.721 L274.238,101.463 L274.736,100.308 L274.867,100.009 C277.186,95.615 279.997,93.593 284.97,92.816 L285.939,92.794 z M286.357,77.045 L283.904,77.101 C283.493,77.11 283.083,77.152 282.678,77.226 C271.996,79.18 265.216,83.811 260.711,93.266 L260.604,93.499 L260.378,94.017 L259.848,95.246 L259.284,96.572 L258.703,97.953 L258.108,99.384 L257.497,100.865 L256.873,102.388 L256.236,103.951 L255.263,106.348 L253.936,109.636 L252.591,112.976 L251.25,116.305 L249.933,119.565 L248.977,121.92 L248.361,123.431 L247.76,124.896 L247.181,126.301 L246.628,127.632 L246.102,128.885 L245.609,130.044 L245.155,131.101 L244.744,132.039 L244.385,132.84 L244.092,133.476 L243.93,133.811 L243.809,134.047 L243.803,134.057 C236.987,147.347 241.217,163.274 253.965,170.999 C267.168,178.703 283.946,174.235 291.55,161.084 L292.035,160.222 L292.14,160.031 L292.692,158.983 L292.783,158.806 L293.284,157.794 L293.344,157.671 L293.833,156.638 L294.372,155.463 L294.914,154.251 L295.466,152.988 L296.032,151.671 L296.613,150.302 L297.212,148.876 L297.825,147.402 L298.451,145.882 L299.091,144.322 L299.743,142.721 L300.734,140.279 L302.074,136.964 L303.418,133.626 L304.747,130.326 L306.042,127.117 L306.979,124.808 L307.578,123.339 L308.157,121.927 L308.709,120.586 L309.233,119.328 L309.723,118.16 L310.174,117.097 L310.595,116.123 L310.805,115.641 C316.892,101.718 310.59,85.473 296.727,79.359 C296.523,79.269 296.313,79.187 296.102,79.114 C295.6,78.943 294.349,78.508 294.135,78.436 C293.443,78.202 292.925,78.053 292.29,77.921 C291.941,77.848 289.514,77.457 287.932,77.169 C287.413,77.075 286.886,77.033 286.357,77.045 z M574.112,274.751 L574.88,274.813 L575.555,274.888 L576.195,275.005 L577.96,275.812 L578.01,276.013 C578.102,276.65 577.956,277.65 577.477,278.913 C576.212,282.255 573.109,286.238 568.706,289.841 C562.648,294.365 555.908,298.402 548.066,297.962 L547.932,297.916 C546.787,297.648 545.388,297.181 544.236,297.797 L543.834,297.783 L542.338,297.738 L540.667,297.693 L538.822,297.649 L536.806,297.605 L534.621,297.561 L532.273,297.518 L529.77,297.475 L527.104,297.431 L524.292,297.385 L521.325,297.34 L518.212,297.296 L514.954,297.252 L511.56,297.208 L508.022,297.165 L504.354,297.122 L500.557,297.079 L496.631,297.036 L492.579,296.994 L488.409,296.953 L484.121,296.91 L479.728,296.862 L475.22,296.815 L470.601,296.768 L465.876,296.721 L461.048,296.674 L456.123,296.628 L451.1,296.582 L445.99,296.535 L440.784,296.489 L435.509,296.437 L427.433,296.356 L416.387,296.25 L405.055,296.143 L393.462,296.038 L381.649,295.913 L369.619,295.788 L357.401,295.663 L345.023,295.538 L332.535,295.39 L313.584,295.17 L288.099,294.853 L262.539,294.509 L237.118,294.124 L218.252,293.823 L205.823,293.613 L193.562,293.375 L181.447,293.142 L169.522,292.913 L157.865,292.643 L146.43,292.371 L135.253,292.107 L124.401,291.817 L116.491,291.579 L111.305,291.425 L106.206,291.273 L101.191,291.124 L96.27,290.977 L91.513,290.799 L86.825,290.617 L82.227,290.438 L77.729,290.264 L73.336,290.093 L69.055,289.927 L64.907,289.757 L60.946,289.555 L57.042,289.356 L53.259,289.164 L49.598,288.978 L46.094,288.789 L42.777,288.576 L39.534,288.37 L36.425,288.172 L33.574,287.947 L30.775,287.726 L28.112,287.517 L25.721,287.289 L23.432,287.056 L21.247,286.834 L19.4,286.617 L17.639,286.37 L15.958,286.134 L14.699,285.948 L13.606,285.709 L13.066,285.591 C15.438,283.765 18.023,282.171 20.816,281.083 L20.831,281.077 L21.261,280.961 L22.213,280.696 L23.087,280.479 L24.171,280.296 L25.676,280.044 L27.254,279.779 L28.961,279.57 L30.941,279.339 L33.138,279.085 L35.389,278.861 L37.815,278.651 L40.484,278.419 L43.273,278.192 L46.149,277.997 L49.261,277.786 L52.524,277.566 L55.832,277.384 L59.361,277.192 L63.031,276.992 L66.769,276.821 L70.664,276.653 L74.709,276.481 L78.881,276.303 L83.179,276.121 L87.519,275.975 L92.007,275.834 L96.624,275.69 L101.351,275.543 L106.186,275.393 L111.127,275.239 L116.153,275.092 L121.22,274.979 L126.421,274.863 L131.717,274.745 L137.098,274.627 L145.33,274.446 L156.538,274.234 L168.019,274.054 L179.785,273.871 L191.784,273.693 L203.947,273.562 L216.323,273.429 L228.865,273.296 L241.51,273.196 L260.686,273.068 L286.492,272.927 L312.364,272.84 L338.118,272.796 L357.232,272.788 L369.843,272.786 L382.288,272.81 L394.58,272.838 L406.684,272.868 L418.569,272.901 L430.2,272.956 L441.576,273.013 L452.662,273.071 L460.773,273.117 L466.075,273.15 L466.066,273.15 L471.277,273.19 L476.402,273.23 L481.43,273.27 L486.366,273.311 L491.201,273.352 L495.933,273.393 L500.565,273.434 L505.088,273.477 L509.499,273.52 L513.782,273.567 L517.958,273.616 L522.009,273.666 L525.942,273.715 L529.747,273.764 L533.422,273.814 L536.961,273.863 L540.371,273.913 L543.636,273.963 L546.762,274.013 L549.743,274.063 L552.578,274.113 L555.252,274.164 L557.779,274.217 L560.151,274.27 L562.363,274.324 L564.413,274.377 L566.301,274.429 L568.021,274.482 L569.572,274.535 L570.963,274.588 L572.186,274.642 L573.249,274.697 L574.112,274.751 z M574.912,262.763 L573.931,262.701 L572.755,262.64 L571.451,262.583 L570.002,262.528 L568.406,262.473 L566.65,262.42 L564.733,262.366 L562.659,262.311 L560.426,262.258 L558.036,262.205 L555.49,262.152 L552.797,262.1 L549.948,262.05 L546.958,262 L543.823,261.949 L540.548,261.9 L537.131,261.85 L533.586,261.8 L529.905,261.75 L526.094,261.701 L522.157,261.651 L518.101,261.602 L513.919,261.552 L509.623,261.505 L505.202,261.462 L500.673,261.42 L496.039,261.378 L491.303,261.337 L486.466,261.296 L481.526,261.255 L476.496,261.215 L471.369,261.175 L466.156,261.135 L466.148,261.135 L460.843,261.102 L452.726,261.057 L441.638,260.998 L430.258,260.941 L418.614,260.886 L406.715,260.853 L394.608,260.823 L382.313,260.795 L369.853,260.771 L357.229,260.773 L338.106,260.781 L312.333,260.825 L286.439,260.912 L260.614,261.053 L241.423,261.182 L228.754,261.282 L216.196,261.414 L203.82,261.547 L191.63,261.679 L179.604,261.857 L167.833,262.041 L156.333,262.221 L145.087,262.433 L136.835,262.615 L131.454,262.733 L126.155,262.851 L120.955,262.966 L115.846,263.08 L110.768,263.23 L105.816,263.383 L100.98,263.533 L96.252,263.681 L91.636,263.825 L87.132,263.966 L82.726,264.114 L78.375,264.299 L74.2,264.477 L70.154,264.649 L66.241,264.818 L62.434,264.992 L58.712,265.194 L55.182,265.387 L51.798,265.573 L48.456,265.798 L45.342,266.009 L42.387,266.21 L39.486,266.446 L36.784,266.68 L34.284,266.898 L31.863,267.139 L29.566,267.404 L27.547,267.639 L25.672,267.868 C25.585,267.879 25.499,267.892 25.412,267.906 L23.705,268.193 L22.195,268.446 L20.885,268.667 C20.737,268.692 20.59,268.723 20.445,268.759 L19.267,269.05 L19.098,269.095 L18.109,269.37 L17.38,269.567 C17.041,269.659 16.712,269.78 16.394,269.929 L16.366,269.942 C10.493,272.303 4.327,275.909 1.053,281.544 C-1.943,288.74 1.659,295.38 9.273,297.028 L9.591,297.117 C9.702,297.148 9.813,297.176 9.925,297.2 L11.06,297.449 L12.352,297.732 C12.485,297.761 12.619,297.785 12.753,297.805 L14.262,298.028 L15.986,298.27 L17.808,298.525 L17.944,298.543 L19.953,298.778 L22.228,299.01 L24.555,299.247 L27.084,299.487 L29.84,299.704 L32.637,299.925 L35.579,300.157 L38.777,300.361 L42.02,300.568 L45.393,300.783 L48.975,300.977 L52.655,301.163 L56.437,301.355 L60.339,301.555 L64.36,301.759 L68.58,301.933 L72.875,302.099 L77.266,302.27 L81.763,302.444 L86.361,302.623 L91.059,302.806 L95.871,302.986 L100.837,303.133 L105.851,303.282 L110.95,303.434 L116.135,303.589 L124.064,303.827 L134.953,304.118 L146.148,304.382 L157.586,304.655 L169.27,304.926 L181.218,305.155 L193.332,305.389 L205.607,305.627 L218.056,305.837 L236.934,306.138 L262.369,306.523 L287.944,306.867 L313.441,307.184 L332.394,307.404 L344.892,307.552 L357.28,307.677 L369.496,307.802 L381.525,307.927 L393.345,308.052 L404.946,308.158 L416.274,308.264 L427.315,308.371 L435.391,308.451 L440.673,308.504 L445.883,308.55 L450.992,308.596 L456.013,308.642 L460.934,308.689 L465.76,308.736 L470.482,308.782 L475.097,308.829 L479.601,308.877 L483.997,308.924 L488.29,308.967 L492.458,309.009 L496.505,309.051 L500.425,309.093 L504.217,309.136 L507.879,309.179 L511.409,309.222 L514.796,309.266 L518.047,309.31 L521.151,309.355 L524.108,309.4 L526.912,309.444 L529.569,309.488 L532.062,309.531 L534.393,309.574 L536.556,309.617 L538.548,309.661 L540.364,309.704 L541.999,309.748 L543.447,309.792 L544.69,309.835 L545.725,309.877 L546.523,309.916 L546.879,309.938 C547.014,309.956 546.902,309.942 547.219,309.968 L547.373,309.976 L547.58,309.968 C558.236,310.431 567.963,305.777 576.19,299.214 C582.189,294.306 586.583,288.668 588.659,283.182 C591.177,276.527 590.236,270.042 585.109,266.056 C584.744,265.773 584.347,265.533 583.928,265.34 L580.479,263.762 C580.031,263.558 579.56,263.409 579.075,263.32 L577.496,263.03 C577.357,263.004 577.216,262.984 577.076,262.968 L576.103,262.86 L575.925,262.844 L575.015,262.771 L574.912,262.763 z" fill="#000000"/>
</svg>
